<?xml version="1.0" encoding="utf-8"?>
<!-- Generator: Adobe Illustrator 28.0.0, SVG Export Plug-In . SVG Version: 6.00 Build 0)  -->
<svg version="1.1" id="Layer_1" xmlns="http://www.w3.org/2000/svg" xmlns:xlink="http://www.w3.org/1999/xlink" x="0px" y="0px"
	 viewBox="0 0 882.65 442.48" style="enable-background:new 0 0 882.65 442.48;" xml:space="preserve">
<style type="text/css">
	.st0{fill:#112524;}
	.st1{fill:#7D7D54;}
	.st2{fill:#9D4220;}
	.st3{fill:#C7BE95;}
</style>
<g>
	<g>
		<path class="st0" d="M778.32,124.82c-0.03,1.98-0.99,2-2.05,2.03c-2.92,0.1-5.88-0.56-8.72,0.79c-0.76,0.36-1.15-0.54-0.99-1.21
			c0.87-3.47,2.18-6.76,4.46-9.58c0.51-0.63,1.17-1.3,2.07-0.57C775.96,118.67,777.67,121.74,778.32,124.82z"/>
		<g>
			<path class="st0" d="M462.15,94.81c7.16,0,14.32-0.11,21.48,0.02c18.1,0.32,33.55,6.71,45.65,20.41
				c3.27,3.71,6.33,7.65,8.1,12.38c0.16,0.44,0.31,1.03,0.77,0.88c0.27-0.09,0.49-0.85,0.45-1.28c-0.3-3.8-0.11-7.6-0.72-11.41
				c-0.87-5.42,0.26-10.57,4.1-14.78c4.2-4.61,9.49-5.97,15.37-4.39c4.23,1.13,8.46,1.38,12.79,1.42c2.73,0.03,5.24-0.78,7.81-1.33
				c6.82-1.47,12.34,0.37,16.6,5.9c0.89,1.16,1.37,1.5,2.29-0.17c3.13-5.65,8.19-7.78,14.51-7.66c7.66,0.14,15.32,0.14,22.98,0.02
				c5.68-0.09,9.84,2.37,12.94,6.95c2.04,3.01,4.04,6.04,6.22,8.95c0.61,0.81,0.78,2.65,2.32,2.09c1-0.36,0.56-1.76,0.55-2.7
				c-0.02-2.88,0.54-5.53,2.14-8.01c2.91-4.49,6.83-7.19,12.28-7.22c9.99-0.06,19.98,0.01,29.98-0.05
				c11.39-0.07,16.29,10,15.08,18.5c-0.66,4.64-0.46,9.27-0.58,13.91c-0.01,0.45,0.3,0.91,0.45,1.37c0.24-0.37,0.52-0.72,0.7-1.12
				c7-15.35,18.91-25.47,34.51-30.99c13.74-4.87,27.87-4.88,42.06-1.18c9.7,2.53,18.24,7.18,25.34,13.96
				c9.67,9.23,16.03,20.47,18.04,33.98c1.38,9.31,1.31,18.5-1.23,27.57c-2.91,10.38-8.26,19.26-16.03,26.86
				c-4.09,4-8.83,6.89-13.49,9.98c-0.36,0.24-1.08,0.24-1.02,0.72c0.05,0.4,0.56,0.86,0.98,1.06c0.58,0.27,1.25,0.35,1.89,0.46
				c8.98,1.52,15.48,6.45,19.38,14.6c2.22,4.64,3.26,9.65,3.49,14.86c0.25,5.49-2.2,9.25-6.87,11.66c-2.67,1.38-5,2.82-6.89,5.37
				c-1.6,2.16-4.15,3.85-7.13,4.13c-1.68,0.16-2.61,0.92-3.41,2.41c-0.77,1.43-2.13,2.52-3.18,3.81c-1.04,1.27-0.63,2.59,0.97,2.97
				c0.96,0.22,1.98,0.17,2.97,0.25c5.57,0.49,9.72,3,11.67,8.44c0.71,1.99,1.73,2.88,4.01,2.61c3.7-0.44,7.22,0.13,10.17,2.83
				c4.76,4.36,5.95,8.22,3.55,14.23c-2.03,5.08-4.82,9.81-8.7,13.74c-3.06,3.1-6.66,5.39-11.04,6.23
				c-9.99,1.91-19.94,2.93-29.93-0.25c-4.04-1.29-7.33-3.72-10.76-6.01c-2.16-1.44-2.23-1.39-4.09,0.92
				c-3.65,4.53-8.33,6.92-14.16,6.94c-7.49,0.03-14.99,0.01-22.48,0.08c-2.87,0.03-5.64-0.6-8.25-1.56
				c-2.05-0.75-3.81-0.99-5.68,0.14c-2.24,1.35-4.71,1.42-7.22,1.41c-10.66-0.03-21.32-0.11-31.97,0.03
				c-6.07,0.08-10.49-2.36-13.59-7.51c-1.11-1.84-1.55-1.86-2.64-0.02c-3.19,5.38-7.82,7.72-14.08,7.56
				c-8.32-0.21-16.65-0.04-24.98-0.07c-1.49,0-3.27,0.33-4.42-0.34c-3.25-1.89-6.2-1.2-9.36,0.04c-1.17,0.46-2.62,0.29-3.94,0.29
				c-8.99,0.02-17.99-0.2-26.98,0.07c-6.28,0.18-10.16-3.23-13.57-7.73c-0.49-0.65-0.79-1.45-1.12-2.21
				c-0.6-1.39-1.62-1.98-3.13-1.97c-2.66,0.02-5.33,0.07-7.99-0.1c-2.66-0.17-4.34,0.84-5.56,3.23c-1.68,3.3-3.96,6.08-7.71,7.32
				c-2.2,0.73-4.35,1.44-6.74,1.42c-8.16-0.07-16.32,0.05-24.48-0.06c-4.86-0.07-9.53-0.91-13.38-4.36
				c-4.37-3.91-5.45-8.74-4.24-14.24c0.54-2.44,1.58-4.7,3.13-6.71c0.29-0.38,0.45-0.98,0-1.31c-0.35-0.25-0.95-0.42-1.34-0.3
				c-1.73,0.55-3.38,1.41-5.13,1.8c-3.23,0.71-6.47,1.33-9.83,1.31c-2.87-0.02-3.17,0.4-3.28,3.14c-0.08,2.16,0.02,4.33-0.04,6.49
				c-0.21,7.62-6.24,13.94-13.9,14.13c-8.99,0.22-18,0.43-26.97-0.02c-6.86-0.35-12.25-3.64-14.68-10.63
				c-0.34-0.97-0.61-1.9-0.57-2.9c0.21-5.14-0.36-10.31,0.77-15.4c0.21-0.96,0.09-1.99,0.11-2.99c0.34-16.15,0.32-32.31,0-48.46
				c-0.08-4.3-0.73-8.57-0.92-12.88c-0.25-5.56,1.3-10.06,5.54-13.72c1.88-1.62,1.86-1.98-0.01-3.48
				c-4.27-3.41-5.81-7.85-5.49-13.14c0.62-10.26,1.47-20.51,1.72-30.78c0.21-8.45,0.86-16.95-0.48-25.39
				c-0.03-0.16-0.03-0.33-0.03-0.5c0.28-10.15-1.1-20.23-1.31-30.37c-0.1-4.51,3.26-7.06,4.68-10.66c3.65-1.42,7.02-3.54,11.2-3.47
				c8.32,0.14,16.65,0.04,24.98,0.04C462.15,94.82,462.15,94.82,462.15,94.81z M686.3,105.82c-4.66,0-9.33-0.06-13.99,0.02
				c-3.48,0.06-4.79,1.36-4.93,4.75c-0.07,1.66-0.03,3.33-0.03,4.99c0,7.16,0.03,14.32-0.01,21.48c-0.01,1.71-1.3,2.42-2.6,1.42
				c-2.35-1.82-4.65-3.72-6.85-5.71c-7.39-6.7-13.42-14.5-18.55-23.05c-1.16-1.94-2.46-3.94-5.31-3.92
				c-7.83,0.07-15.65-0.04-23.48,0.06c-2.68,0.03-4.09,1.66-4.23,4.42c-0.07,1.33-0.03,2.66-0.01,4c0.16,8.61,0.45,17.21,0.82,25.81
				c0.61,14.08,0.45,28.2-0.69,42.28c-0.36,4.47,0.09,9.01-0.32,13.47c-0.14,1.5-0.85,2.71,0.56,3.93c1.12,0.96,1.96,2.16,3.73,2.15
				c9.33-0.06,18.65,0.04,27.98-0.07c3.08-0.04,4.76-1.86,4.98-4.96c0.14-1.99,0.02-3.99,0.02-5.99c0.01-7.16,0.01-14.32,0.05-21.48
				c0-0.44,0.23-1.09,0.55-1.24c0.31-0.15,0.98,0.07,1.31,0.35c2.77,2.35,5.63,4.62,8.21,7.16c7.3,7.2,13.61,15.21,18.76,24.09
				c0.86,1.49,1.85,2.14,3.53,2.13c7.99-0.04,15.99,0.06,23.98-0.04c3.74-0.05,4.69-1.04,4.6-4.72c-0.16-7.1-0.27-14.19-0.78-21.31
				c-0.75-10.44-0.07-20.97-0.25-31.46c-0.17-10.46,1.57-20.84,1.07-31.3c-0.03-0.64,0.21-1.29,0.27-1.94
				c0.35-3.72-0.87-5.24-4.44-5.3C695.63,105.76,690.97,105.81,686.3,105.82z M463.66,201.89
				C463.66,201.89,463.66,201.88,463.66,201.89c7.16-0.01,14.32-0.13,21.47,0.03c6.01,0.14,11.74-0.92,17.3-3.09
				c8.2-3.2,15.26-8.16,20.47-15.15c6.44-8.63,9.01-18.79,9.48-29.47c0.12-2.79-0.46-5.55-0.75-8.32
				c-0.57-5.36-2.33-10.38-4.82-14.85c-4.24-7.64-9.52-14.7-17.68-18.81c-7.08-3.56-14.41-6.35-22.48-6.38
				c-14.65-0.05-29.3-0.02-43.95-0.02c-2,0-4-0.1-5.99,0.02c-3.36,0.19-4.32,1.18-4.27,4.57c0.08,6.61,0.6,13.22,0.81,19.8
				c0.54,16.46,0.46,32.96,0,49.43c-0.16,5.58-0.81,11.18-0.81,16.8c0,4.11,1.23,5.4,5.24,5.42
				C446.34,201.92,455,201.89,463.66,201.89z M697.91,308.79c5.32,0,10.65-0.08,15.97,0.04c2.18,0.05,3.57-1.01,4.32-2.72
				c0.71-1.62,0.16-3.16-1.28-4.44c-2.49-2.2-5-4.41-7.21-6.88c-2.27-2.54-5.09-4.63-6.65-7.79c-1.88-3.81-3.76-7.62-5.74-11.38
				c-1.1-2.09-1.26-3.78,0.46-5.83c6.24-7.44,6.85-16.49,5.38-25.35c-1.18-7.13-4.67-13.54-11.2-17.9
				c-6.78-4.53-13.85-7.25-22.15-6.84c-2.83,0.14-5.4,1.22-8.26,1.16c-9.15-0.19-18.3-0.08-27.45-0.11
				c-1.46-0.01-2.96,0.27-4.33-0.71c-0.46-0.33-1.28-0.16-1.93-0.23c-5.5-0.54-7.26,2.09-6.23,6.71c0.7,3.14,0.74,6.22,0.75,9.33
				c0.05,18.47,0.05,36.94,0.01,55.4c-0.01,2.95,0.32,5.92-0.8,8.83c-0.45,1.17-0.27,2.64-0.16,3.96c0.27,3.21,1.86,4.71,5.05,4.72
				c8.32,0.04,16.64-0.14,24.96,0.08c4.85,0.12,5.25-1.16,4.91-5.67c-0.04-0.48-0.35-0.93-0.4-1.41c-0.66-5.58-1.2-11.14,0.34-16.68
				c0.99-3.57,1.7-3.91,4.66-1.98c0.55,0.36,1.02,0.85,1.51,1.3c3.69,3.36,6.92,7.12,9.84,11.15c2.21,3.05,3.76,6.5,4.97,10.01
				c0.51,1.49,0.99,1.95,2.38,2.49c1.47,0.57,2.85,0.74,4.33,0.74C688.6,308.8,693.26,308.79,697.91,308.79z M775.41,203.77
				c1.58,0,4.35,0.49,6.88-0.09c7.31-1.67,14.5-3.69,21-7.73c5.31-3.3,9.88-7.51,13.49-12.37c5.96-8.03,9.08-17.37,9.49-27.46
				c0.14-3.45-0.39-6.87-0.79-10.31c-1.18-10.1-5.79-18.32-12.39-25.72c-5.18-5.8-11.63-9.71-18.7-12.62
				c-4.84-2-9.99-3.15-15.2-3.55c-8.96-0.69-17.69,0.42-26.12,3.84c-10.75,4.36-19.35,11.04-24.87,21.42
				c-3.02,5.68-5.28,11.45-6.27,17.99c-1,6.58-0.08,12.76,1.14,19c1.44,7.37,5.38,13.67,9.79,19.57c3.8,5.09,8.92,9.04,14.45,11.88
				C755.67,201.92,764.71,204.45,775.41,203.77z M745.21,308.78c3.83,0,7.66,0.09,11.49-0.02c4.53-0.14,6.7-2.31,6.6-6.73
				c-0.08-3.45,0.56-6.94-0.78-10.34c-0.4-1.01-0.08-2.31-0.1-3.47c-0.01-0.52,0.15-0.99,0.66-1.16c0.54-0.19,0.86,0.17,1.2,0.58
				c5.01,6.08,11.51,10.45,17.69,15.15c4.17,3.17,8.87,5.68,14.3,5.97c3.82,0.2,7.67,0.14,11.49-0.04
				c8.58-0.39,15.54-6.17,17.91-14.46c0.33-1.14,0.09-1.34-0.79-1.71c-0.75-0.31-1.33-0.82-2.28-0.48
				c-3.7,1.32-7.56,0.44-11.34,0.67c-1.78,0.11-2.78-1.05-3.53-2.34c-0.69-1.19-0.37-2.62-0.15-3.9c0.77-4.45-0.07-5.78-4.49-5.63
				c-3.2,0.11-6.15-1.1-9.3-1.11c-1.56-0.01-2.33-1.08-2.35-2.64c-0.01-0.67,0.02-1.34-0.05-2c-0.46-4.66-1.05-5.28-5.52-5.3
				c-2.62-0.01-4.9-0.65-6.63-2.71c-1.42-1.69-1.22-2.86,0.64-4.46c0.76-0.65,1.5-1.32,2.22-2.01c2.28-2.16,4.47-2.85,7.96-2.12
				c6.34,1.33,6.51-0.2,6.21-5.91c-0.01-0.15-0.17-0.29-0.21-0.45c-0.52-2.62-0.18-3.14,2.47-3.22c2.5-0.08,5,0.06,7.49-0.02
				c2.56-0.08,3.04-0.69,3.34-3.27c0.21-1.79-0.77-3.96,0.5-5.3c1.52-1.61,3.34,0.44,5.07,0.51c0.33,0.01,0.67,0.04,1,0.05
				c2.69,0.07,3.85-1.14,3.1-3.6c-0.34-1.12-0.54-2.21-0.73-3.35c-0.61-3.67-2.52-6.65-5.15-9.22c-5.75-5.64-12.95-4.71-19.6-3.32
				c-4.95,1.03-9.37,4.25-13.46,7.62c-4.38,3.61-8.13,7.81-12.24,11.66c-0.97,0.91-1.87,1.91-2.92,2.71
				c-1.12,0.86-2.5,0.33-2.51-0.97c-0.03-2.99-0.44-6.12,0.29-8.93c0.74-2.85,0.5-5.6,0.57-8.38c0.07-2.34-2.21-5.08-4.4-5.23
				c-2.64-0.18-5.41-0.38-7.94,0.23c-3.48,0.84-6.7,0.89-10.19,0.02c-2.51-0.63-5.3-0.49-7.93-0.25c-3.3,0.3-4.58,1.88-4.52,5.25
				c0.13,6.78,0.52,13.56,0.74,20.31c0.42,12.74,0.96,25.52-0.51,38.3c-0.78,6.74-0.18,13.64-0.28,20.47
				c-0.02,1.53,0.71,2.22,1.87,3.11c1.45,1.11,2.85,1.48,4.57,1.46C738.21,308.74,741.71,308.78,745.21,308.78z M595.52,308.78
				C595.52,308.78,595.52,308.79,595.52,308.78c4.33,0.01,8.66,0.07,12.98-0.01c4.63-0.09,6.2-2.45,4.56-6.76
				c-0.35-0.92-0.92-1.75-1.39-2.62c-4.56-8.52-9.24-16.99-13.65-25.58c-4.21-8.19-8.21-16.48-12.15-24.81
				c-3.78-7.99-7.5-15.99-10.94-24.13c-0.57-1.36-1.18-2.74-1.99-3.96c-1.43-2.16-2.54-2.38-4.98-1.28c-1.2,0.54-2.37,1.15-3.56,1.7
				c-4.17,1.92-8.21,2.16-11.98-0.97c-0.25-0.21-0.56-0.34-0.85-0.5c-3.54-1.9-4.74-1.5-6.68,2.01c-2.86,5.16-4.82,10.75-7.2,16.1
				c-4.06,9.14-8.64,18-12.9,27.02c-2.81,5.95-5.64,11.91-8.86,17.63c-3.55,6.3-7.17,12.56-10.43,19.01
				c-2.28,4.51-0.71,7.11,4.22,7.14c8.82,0.06,17.64-0.05,26.46,0.06c2.68,0.03,4.42-0.9,5.4-3.39c0.36-0.91,0.96-1.73,1.35-2.63
				c1.39-3.18,3.74-4.93,7.25-5.03c0.83-0.02,1.62-0.35,2.4-0.46c4.74-0.66,9.44-0.64,14.25,0.07c4.89,0.73,8.16,2.67,9.67,7.49
				c0.89,2.84,3.01,4.04,6.05,3.94C586.86,308.68,591.19,308.78,595.52,308.78z M449.57,308.79
				C449.57,308.79,449.57,308.79,449.57,308.79c3.66-0.01,7.35-0.27,10.98,0.06c4.24,0.39,6.43-1.99,6.06-6.28
				c-0.35-3.97,0.01-7.99-0.1-11.98c-0.04-1.64,0.47-2.82,1.57-3.98c1.24-1.31,2.61-1.77,4.4-1.79c5.11-0.06,10.23,0.46,15.29-0.99
				c6.33-1.81,12.07-4.96,15.9-10.07c5.8-7.74,9.24-16.43,6.92-26.64c-2.1-9.25-6.29-17-14.5-21.92c-5.8-3.48-12.04-5.88-19.15-5.49
				c-2.99,0.16-5.82,1.11-8.79,1.1c-8.16-0.03-16.32-0.09-24.47,0.02c-2.52,0.03-4.74-1.43-7.29-1.03c-2.12,0.34-3.7,1.65-3.93,3.73
				c-0.11,0.99-0.02,2-0.01,3c0.06,7.61,0.4,15.2,0.86,22.81c0.58,9.62,0.14,19.31,0.14,28.96c0,1.17,0.16,2.37-0.08,3.49
				c-1.73,7.89-0.47,15.87-0.91,23.8c-0.08,1.39,0.68,1.97,1.77,2.61c1.27,0.75,2.56,0.58,3.87,0.59
				C441.91,308.81,445.74,308.79,449.57,308.79z M586.37,115.97c0.32-8.66-3.38-8.81-8.03-7.71c-3.96,0.94-8.19,1.77-12.14,1.29
				c-3.16-0.38-6.46-0.89-9.65-1.45c-6.54-1.14-7.56-0.39-7.22,5.62c0.04,0.66,0.05,1.33,0.01,2c-0.52,8.97,1.19,17.84,1.12,26.79
				c-0.08,10.49-0.04,20.98-0.05,31.47c0,1.17,0.18,2.38-0.08,3.49c-1.51,6.26-1.1,12.62-0.95,18.95c0.08,3.4,2.37,5.14,5.66,4.13
				c8.45-2.6,16.88-1.97,25.33-0.19c3.94,0.83,7.03-1.97,5.85-5.79c-0.45-1.46-0.74-2.82-0.78-4.3c-0.14-5.76,0.63-11.58-0.94-17.26
				c0.38-12.26-0.79-24.52,0.76-36.79C586.14,129.16,584.94,121.95,586.37,115.97z"/>
			<g>
				<path class="st0" d="M802.17,363.48c0,2.99-0.03,5.98,0.01,8.97c0.02,1.45-0.52,2.09-2.05,2.05c-1.55-0.04-3.23,0.11-3.38-1.93
					c-0.19-2.48-0.02-4.98-0.08-7.46c-0.01-0.43-0.3-1.08-0.62-1.21c-0.39-0.16-0.74,0.33-1.01,0.78c-0.5,0.85-1.15,1.61-1.76,2.4
					c-1.61,2.1-3.06,2.12-4.58,0c-0.86-1.21-1.57-2.52-2.39-3.76c-0.13-0.2-0.63-0.43-0.72-0.35c-0.22,0.19-0.43,0.54-0.44,0.83
					c-0.04,2.66,0.04,5.32-0.07,7.97c-0.09,2.16-0.71,2.7-2.65,2.72c-2.01,0.02-2.78-0.53-2.81-2.55
					c-0.09-6.14-0.12-12.29-0.03-18.43c0.03-2.06,1.38-2.75,3.45-2.08c1.27,0.42,2.35,0.97,3.03,2.3c0.89,1.76,2.01,3.4,3.08,5.06
					c1.85,2.86,2.17,2.87,3.82,0.13c1.19-1.97,2.4-3.94,3.52-5.95c0.42-0.76,0.88-1.44,1.66-1.76c2.06-0.84,3.89,0.41,3.97,2.83
					C802.25,357.17,802.18,360.33,802.17,363.48z"/>
				<path class="st0" d="M467.67,351.11c2.71-0.05,2.87,0.06,3.64,2.87c0.74,2.7,1.45,5.41,2.2,8.1c0.18,0.64,0.4,1.37,1.13,1.5
					c1.25,0.23,1.05-1.04,1.32-1.62c0.69-1.48,1.28-3.04,1.63-4.63c0.37-1.66,1.41-2.96,2.84-3.04c1.63-0.09,3.06,1,3.55,2.83
					c0.04,0.16,0.17,0.29,0.22,0.45c0.72,2.45,1.02,5.08,2.94,7.03c0.72-2.34,1.47-4.68,2.17-7.03c0.37-1.26,0.7-2.53,0.98-3.81
					c0.35-1.57,1.28-2.09,2.86-2.04c2.2,0.08,2.83,0.57,2.22,2.66c-1.71,5.84-3.56,11.64-5.41,17.44c-0.34,1.08-0.8,2.12-2.36,2.07
					c-1.56-0.04-2.45-0.69-2.96-2.12c-0.83-2.33-1.67-4.65-2.63-6.93c-0.29-0.69-0.39-1.8-1.34-1.87c-1.18-0.1-0.92,1.09-1.23,1.79
					c-0.93,2.11-1.87,4.18-2.34,6.48c-0.28,1.36-0.94,2.83-3.01,2.64c-1.64-0.15-2.21-1.06-2.63-2.45
					c-1.82-5.98-3.73-11.92-5.55-17.9C465.32,351.63,465.74,351.15,467.67,351.11z"/>
				<path class="st0" d="M602.42,362.88c-0.02-7.13,4.3-11.59,10.88-11.97c7.09-0.4,11.74,5.29,11.8,11.72
					c0.06,5.85-3.82,12.11-11.48,12.12C608.05,374.76,601.49,368.95,602.42,362.88z M619.63,362.89c0.01-4.13-2.59-7.14-6.03-6.98
					c-3.82,0.18-6.25,2.85-6.24,6.86c0.01,4.31,2.58,6.98,6.66,6.91C617.4,369.63,619.62,366.93,619.63,362.89z"/>
				<path class="st0" d="M706.43,362.8c0.46,6.84-4.43,12.07-11.41,11.85c-6.67-0.21-11.48-4.83-11.19-11.76
					c0.28-6.71,3.01-11.67,11.55-11.88C702.04,350.84,706.43,355.68,706.43,362.8z M701.49,362.93c0.01-4.14-2.54-7.19-5.9-7.05
					c-3.96,0.16-6.28,2.58-6.35,6.63c-0.08,4.6,2.16,7.23,6.15,7.2C699.09,369.68,701.48,367.03,701.49,362.93z"/>
				<path class="st0" d="M808.34,362.43c0-2.99-0.02-5.97,0.01-8.96c0.01-1.44,0.26-2.49,2.24-2.4c3.48,0.17,6.97,0,10.45,0.05
					c2.08,0.02,2.3,0.34,2.3,2.8c0,2.24-0.23,2.51-2.51,2.56c-1.99,0.05-3.98-0.01-5.97,0.04c-0.92,0.02-1.52,0.51-1.57,1.52
					c-0.06,1.15,0.32,1.91,1.58,2.04c1.8,0.18,3.62-0.22,5.43,0.36c1.29,0.42,1.85,1.03,1.82,2.46c-0.03,1.66-0.96,1.88-2.25,1.87
					c-1.49-0.01-2.99-0.08-4.48,0.04c-1.62,0.13-2.23,1.19-2.11,2.76c0.1,1.33,0.98,1.56,2.07,1.53c1.93-0.05,3.83,0.3,5.79,0.12
					c1.9-0.17,2.83,1.02,2.87,2.58c0.04,1.57-0.57,2.63-2.22,2.66c-3.98,0.06-7.96,0.04-11.95,0.03c-1.45,0-1.46-1.13-1.47-2.1
					c-0.04-3.32-0.02-6.64-0.02-9.96C808.35,362.43,808.34,362.43,808.34,362.43z"/>
				<path class="st0" d="M629.47,359.8c0-2.16-0.04-4.32,0.02-6.48c0.03-0.93-0.09-2.18,1.36-2.17c1.38,0.01,2.99-0.65,3.75,1.42
					c0.42,1.15,0.43,2.26,0.44,3.41c0.02,2.99-0.05,5.98,0.04,8.97c0.09,3.02,1.13,4.1,3.7,4.17c2.66,0.07,4.51-1.41,4.61-4.07
					c0.14-3.82,0.01-7.64,0.08-11.46c0.03-2.06,2.33-3.4,4.07-2.42c0.65,0.37,0.73,1.07,0.73,1.74c0.01,4.49,0.21,8.98-0.03,13.45
					c-0.28,5.09-4.48,8.33-9.99,8.13c-5.06-0.18-8.57-3.66-8.74-8.72c-0.07-1.99-0.01-3.99-0.01-5.98
					C629.48,359.8,629.48,359.8,629.47,359.8z"/>
				<path class="st0" d="M525.6,363.04c0-2.66-0.05-5.31,0.01-7.97c0.07-2.78,0.48-3.22,3.09-3.3c2.32-0.07,4.65-0.1,6.97,0.01
					c6.25,0.3,9.25,5.85,6.08,11.15c-0.42,0.7-0.75,1.42-1.53,1.89c-0.88,0.53-0.69,1.33-0.21,2.13c1.01,1.7,2.04,3.4,2.92,5.16
					c0.86,1.71,0.42,2.14-1.59,2.36c-2.12,0.24-3.42-0.47-4.26-2.48c-0.69-1.67-1.67-3.23-2.63-4.76c-0.53-0.85-1.35-1.58-2.48-1.23
					c-1.04,0.33-1.56,1.15-1.52,2.29c0.04,0.99,0.04,1.99,0,2.99c-0.08,2.17-2.14,3.36-4.06,2.38c-0.68-0.35-0.79-0.99-0.8-1.67
					C525.61,369.02,525.61,366.03,525.6,363.04C525.61,363.04,525.61,363.04,525.6,363.04z M530.52,359.34
					c0.05,2.86,0.49,3.17,3.58,2.66c0.81-0.14,1.71,0.03,2.43-0.28c1.1-0.47,1.86-1.37,1.75-2.7c-0.17-1.96-2.15-3.23-4.84-3.13
					C530.97,355.97,530.46,356.58,530.52,359.34z"/>
				<path class="st0" d="M520.62,363.3c-0.11,6.43-4.67,11.56-10.66,11.21c-7.27-0.42-11.58-4.47-11.48-12.07
					c0.09-7.16,4.26-10.95,11.78-10.8C517.07,351.79,520.74,355.91,520.62,363.3z M510,369.71c3.19-0.06,6.36-3.67,6.2-7.07
					c-0.17-3.59-3.45-6.93-6.61-6.72c-3.79,0.25-6.18,2.9-6.18,6.86C503.39,367.03,506.01,369.78,510,369.71z"/>
				<path class="st0" d="M568.47,362.76c0-2.99,0.02-5.98-0.01-8.97c-0.02-1.46,0.61-2.08,2.09-2.04c2.32,0.06,4.65-0.01,6.97,0.02
					c8.05,0.1,13.11,7.7,10.21,15.29c-1.63,4.27-4.5,6.82-9.28,6.78c-2.49-0.02-4.98-0.07-7.47,0.06c-2.04,0.11-2.57-0.84-2.51-2.68
					c0.09-2.82,0.02-5.65,0.02-8.47C568.49,362.76,568.48,362.76,568.47,362.76z M576.35,369.7c4.34,0.01,6.67-1.93,7.01-5.94
					c0.48-5.64-2.38-7.96-8.65-7.78c-1.16,0.03-1.28,0.89-1.3,1.7c-0.04,3.14-0.06,6.29,0.01,9.43
					C573.48,369.68,573.55,369.69,576.35,369.7z"/>
				<path class="st0" d="M450.89,374.5c-1.68,0.15-2.88-0.49-3.13-2.33c-0.34-2.45-2.03-2.54-4.01-2.64
					c-2.87-0.14-5.23,0.14-6.19,3.46c-0.36,1.24-3.02,2.01-4.17,1.42c-0.36-0.18-0.67-0.74-0.72-1.16
					c-0.08-0.64-0.07-1.37,0.16-1.96c2.4-6.11,4.85-12.21,7.28-18.31c0.53-1.34,1.28-2.08,2.96-1.95c1.32,0.1,2.13,0.34,2.62,1.64
					c0.88,2.31,1.86,4.58,2.85,6.85c1.7,3.92,2.51,8.17,4.57,11.99C454.22,373.59,453.31,374.57,450.89,374.5z M442.75,365.6
					c2.59,0.03,2.97-0.46,2.09-2.74c-0.23-0.6-0.48-1.2-0.78-1.77c-0.35-0.67-0.77-1.3-1.16-1.95c-0.72,0.48-1.07,1.17-1.26,1.99
					c-0.15,0.62-0.42,1.22-0.62,1.83C440.31,365.15,440.59,365.57,442.75,365.6z"/>
				<path class="st0" d="M661.6,351.11c2.15,0,4.32,0.14,6.45-0.04c1.85-0.15,2.28,0.71,2.34,2.28c0.1,2.73-0.09,2.98-2.89,3.17
					c-3.31,0.23-3.33,0.23-3.34,3.74c-0.01,3.97,0,7.95,0,11.92c0,1.22-0.05,2.26-1.76,2.32c-2.48,0.09-3.63-0.35-3.69-2.16
					c-0.14-3.97-0.04-7.95-0.06-11.92c-0.02-3.63-0.04-3.62-3.68-3.9c-0.91-0.07-2.14,0.36-2.38-1.06c-0.22-1.3-0.39-2.66,0.25-3.88
					c0.35-0.67,1.16-0.48,1.8-0.48C656.97,351.1,659.29,351.11,661.6,351.11z"/>
				<path class="st0" d="M768.3,351.74c1,0,2.01-0.1,2.99,0.03c1.03,0.14,2.63-0.64,2.88,1.05c0.22,1.47,0.95,3.5-1.77,3.71
					c-1.05,0.08-1.33,0.82-1.33,1.72c0,2.99,0,5.99,0.01,8.98c0.01,1.16,0.5,1.87,1.76,1.89c1.61,0.02,1.66,1.51,2.02,2.46
					c0.53,1.39-0.39,2.77-1.88,2.84c-2.82,0.12-5.66,0.09-8.48,0.01c-1.31-0.04-2.16-0.8-2.23-2.19c-0.06-1.19-0.1-2.45,1.61-2.48
					c1.33-0.02,1.61-0.82,1.68-1.93c0.2-3.3-0.37-6.61,0.45-9.92c0.33-1.32-0.85-2-2.19-2.08c-1.71-0.11-1.6-1.38-1.56-2.54
					c0.04-1.32,0.97-1.56,2.06-1.56C765.64,351.76,766.97,351.75,768.3,351.74C768.3,351.75,768.3,351.75,768.3,351.74z"/>
				<path class="st0" d="M718.36,351.74c1.99,0,3.99,0.03,5.98-0.01c1.48-0.03,2.05,0.66,2.06,2.11c0,1.44-0.56,2.16-2.03,2.13
					c-1.99-0.03-3.99,0-5.98-0.06c-1.16-0.03-2.01,0.29-2,1.57c0.01,1.38-0.57,2.9,1.6,3.59c1.94,0.62,3.79-0.52,5.78,0.32
					c1.48,0.62,1.58,1.38,1.53,2.59c-0.06,1.36-0.91,1.57-2.02,1.54c-1.33-0.04-2.66-0.08-3.99-0.01c-2.37,0.13-2.85,0.64-2.92,3.04
					c-0.03,0.99-0.11,2.06,0.23,2.94c0.43,1.11,0.42,1.93-0.56,2.58c-1.21,0.79-2.58,0.41-3.87,0.28c-0.27-0.03-0.68-0.77-0.68-1.19
					c0-6.96,0.05-13.93,0.14-20.89c0-0.19,0.47-0.37,0.72-0.56c0.34,0,0.69,0.01,1.03,0.01c0.66,0,1.32-0.01,1.98-0.01
					C716.36,351.73,717.36,351.73,718.36,351.74z"/>
				<path class="st0" d="M748.72,351.75c2.33,0,4.66,0.03,6.98-0.01c1.14-0.02,1.89,0.46,2.32,1.48c0.5,1.17-0.03,2.51-1.25,2.68
					c-1.9,0.26-4.33-0.09-5.22,1.75c-0.72,1.49-0.19,3.59-0.19,5.42c-0.01,2.99-0.05,5.99,0.01,8.98c0.03,1.68-1.02,1.87-2.26,1.85
					c-1.3-0.02-2.75,0.22-2.72-1.89c0.06-4.16,0.05-8.31,0.01-12.47c-0.04-3.32-0.48-3.81-3.75-3.33c-1.39,0.2-2.24,0.41-2.37-1.31
					c-0.19-2.33,0.19-3.05,1.96-3.11C744.4,351.69,746.56,351.75,748.72,351.75z"/>
				<path class="st0" d="M553.5,353.69c-0.01,4.64,0,9.28-0.05,13.92c-0.02,1.45,0.56,2.13,2.04,2.09c1.66-0.04,3.31-0.01,4.97-0.01
					c1.48,0,2.99-0.28,3.07,2.06c0.08,2.41-1.57,2.05-2.98,2.21c-2.07-0.39-4.14-0.39-6.21,0.01c-0.6,0.01-1.2,0.02-1.8,0.03
					c-1.17-0.89-2.53-1.25-3.96-1.37c-0.02-5.76-0.06-11.52-0.04-17.27c0.01-3.41,0.06-3.41,3.88-3.6
					C552.47,352.59,552.4,353.47,553.5,353.69z"/>
				<path class="st0" d="M548.58,372.64c1.44,0.12,2.79,0.48,3.96,1.37C549.54,375.28,549.02,375.1,548.58,372.64z"/>
				<path class="st0" d="M554.34,373.98c2.07-0.39,4.14-0.4,6.21-0.01C557.91,375.02,556.99,375.02,554.34,373.98z"/>
				<path class="st0" d="M553.5,353.69c-1.1-0.22-1.03-1.1-1.08-1.92C553.75,351.87,553.53,352.83,553.5,353.69z"/>
				<path class="st0" d="M713.37,351.74c-0.34,0-0.69-0.01-1.03-0.01c0.17-0.25,0.35-0.5,0.52-0.75
					C713.03,351.23,713.2,351.48,713.37,351.74z"/>
			</g>
			<path class="st1" d="M686.3,105.81c4.66,0,9.33-0.06,13.99,0.02c3.57,0.06,4.79,1.57,4.44,5.3c-0.06,0.65-0.3,1.3-0.27,1.94
				c0.5,10.46-1.24,20.84-1.07,31.3c0.17,10.49-0.5,21.02,0.25,31.46c0.51,7.12,0.62,14.21,0.78,21.31c0.08,3.68-0.86,4.67-4.6,4.72
				c-7.99,0.1-15.99,0-23.98,0.04c-1.68,0.01-2.67-0.64-3.53-2.13c-5.14-8.88-11.46-16.89-18.76-24.09
				c-2.58-2.55-5.44-4.81-8.21-7.16c-0.33-0.28-0.99-0.5-1.31-0.35c-0.32,0.16-0.55,0.81-0.55,1.24
				c-0.04,7.16-0.04,14.32-0.05,21.48c0,2,0.11,4-0.02,5.99c-0.21,3.1-1.9,4.93-4.98,4.96c-9.32,0.11-18.65,0.01-27.98,0.07
				c-1.77,0.01-2.61-1.19-3.73-2.15c-1.42-1.22-0.7-2.43-0.56-3.93c0.4-4.46-0.04-9,0.32-13.47c1.13-14.08,1.29-28.2,0.69-42.28
				c-0.37-8.6-0.67-17.2-0.82-25.81c-0.02-1.33-0.06-2.67,0.01-4c0.14-2.76,1.55-4.39,4.23-4.42c7.83-0.09,15.65,0.01,23.48-0.06
				c2.84-0.03,4.14,1.97,5.31,3.92c5.12,8.55,11.15,16.35,18.55,23.05c2.2,2,4.5,3.89,6.85,5.71c1.3,1.01,2.59,0.3,2.6-1.42
				c0.04-7.16,0.01-14.32,0.01-21.48c0-1.67-0.04-3.33,0.03-4.99c0.15-3.38,1.45-4.69,4.93-4.75
				C676.98,105.76,681.64,105.82,686.3,105.81z"/>
			<path class="st1" d="M463.66,201.89c-8.66,0-17.31,0.04-25.97-0.02c-4.02-0.02-5.25-1.32-5.24-5.42c0-5.61,0.66-11.22,0.81-16.8
				c0.46-16.47,0.54-32.97,0-49.43c-0.22-6.59-0.73-13.19-0.81-19.8c-0.04-3.39,0.92-4.38,4.27-4.57c1.99-0.12,3.99-0.02,5.99-0.02
				c14.65,0,29.3-0.03,43.95,0.02c8.07,0.03,15.41,2.82,22.48,6.38c8.16,4.1,13.44,11.17,17.68,18.81
				c2.48,4.47,4.24,9.49,4.82,14.85c0.3,2.77,0.88,5.53,0.75,8.32c-0.48,10.68-3.04,20.84-9.48,29.47
				c-5.22,6.99-12.28,11.95-20.47,15.15c-5.57,2.18-11.29,3.23-17.3,3.09C477.98,201.75,470.82,201.88,463.66,201.89
				C463.66,201.88,463.66,201.89,463.66,201.89z M478.91,165.81C478.91,165.81,478.91,165.82,478.91,165.81c1.67,0.01,3.33,0.03,5,0
				c4.47-0.09,7.38-2.51,9.07-6.83c0.77-1.97,0.36-3.91,0.77-5.85c1.02-4.85-1.8-9.57-6.38-11.2c-4.84-1.72-9.85-0.92-14.78-0.88
				c-2.2,0.02-3.02,1.31-3.03,3.61c-0.03,5.83-0.05,11.66,0.01,17.49c0.03,3.13,0.56,3.58,3.86,3.66
				C475.25,165.85,477.08,165.81,478.91,165.81z"/>
			<path class="st1" d="M697.91,308.79c-4.66,0-9.32,0.01-13.98,0c-1.48,0-2.86-0.17-4.33-0.74c-1.39-0.54-1.87-1-2.38-2.49
				c-1.21-3.51-2.76-6.95-4.97-10.01c-2.92-4.03-6.15-7.79-9.84-11.15c-0.49-0.45-0.96-0.94-1.51-1.3
				c-2.97-1.93-3.67-1.59-4.66,1.98c-1.53,5.54-0.99,11.11-0.34,16.68c0.06,0.48,0.37,0.93,0.4,1.41c0.34,4.51-0.06,5.8-4.91,5.67
				c-8.31-0.21-16.64-0.04-24.96-0.08c-3.2-0.01-4.79-1.51-5.05-4.72c-0.11-1.32-0.29-2.79,0.16-3.96c1.13-2.91,0.8-5.88,0.8-8.83
				c0.04-18.47,0.04-36.94-0.01-55.4c-0.01-3.11-0.05-6.18-0.75-9.33c-1.03-4.62,0.74-7.25,6.23-6.71c0.65,0.06,1.47-0.1,1.93,0.23
				c1.37,0.98,2.87,0.71,4.33,0.71c9.15,0.04,18.3-0.08,27.45,0.11c2.86,0.06,5.43-1.02,8.26-1.16c8.31-0.41,15.37,2.31,22.15,6.84
				c6.54,4.36,10.02,10.77,11.2,17.9c1.47,8.86,0.86,17.91-5.38,25.35c-1.72,2.05-1.56,3.73-0.46,5.83
				c1.97,3.76,3.85,7.57,5.74,11.38c1.56,3.16,4.38,5.25,6.65,7.79c2.21,2.47,4.72,4.67,7.21,6.88c1.44,1.27,1.99,2.82,1.28,4.44
				c-0.75,1.71-2.14,2.77-4.32,2.72C708.57,308.71,703.24,308.79,697.91,308.79z M660.67,258.83c1.88,0,3.38-0.1,4.86,0.02
				c2.32,0.2,3.71-1.03,4.79-2.83c1.16-1.94,1.31-4.1,0.94-6.22c-0.56-3.19-2.89-4.88-6.24-5.08c-2.43-0.15-4.85,0.39-7.31-0.64
				c-1.87-0.78-3.14,0.36-3.28,2.45c-0.13,1.81-0.1,3.64-0.04,5.46c0.07,2.12-0.84,4.71,0.53,6.22
				C656.34,259.8,658.98,258.51,660.67,258.83z"/>
			<path class="st1" d="M775.41,203.77c-10.7,0.69-19.74-1.85-28.1-6.14c-5.53-2.84-10.64-6.79-14.45-11.88
				c-4.41-5.91-8.35-12.2-9.79-19.57c-1.22-6.24-2.14-12.41-1.14-19c0.99-6.54,3.24-12.31,6.27-17.99
				c5.52-10.38,14.13-17.06,24.87-21.42c8.44-3.42,17.16-4.53,26.12-3.84c5.21,0.4,10.36,1.55,15.2,3.55
				c7.07,2.91,13.52,6.82,18.7,12.62c6.6,7.4,11.21,15.62,12.39,25.72c0.4,3.44,0.93,6.86,0.79,10.31
				c-0.41,10.09-3.54,19.43-9.49,27.46c-3.61,4.86-8.18,9.07-13.49,12.37c-6.5,4.04-13.7,6.06-21,7.73
				C779.77,204.25,776.99,203.77,775.41,203.77z M767.25,160.27c0,0.33,0.11,1.5-0.04,2.65c-0.1,0.84-0.74,1.56-1.55,1.79
				c-0.94,0.27-1.5-0.49-1.96-1.19c-1.35-2.04-1.42-4.36-1.26-6.68c0.23-3.24-0.88-5.95-3.46-7.79c-2.4-1.72-4.93-2.87-8.19-1.44
				c-3.39,1.48-5.21,3.49-5.54,7.32c-0.37,4.25,1.55,7.49,4.13,10.17c2.15,2.23,3.37,4.5,4.13,7.46c0.89,3.51,2.73,6.57,6.25,8.5
				c2.54,1.39,4.74,3.25,6.45,5.91c3.36,5.22,12,4.49,15.68-0.42c1.21-1.62,2.53-2.84,4.09-4.09c2.9-2.31,6.51-4.48,7.2-8.4
				c0.69-3.99,2.61-6.92,5.18-9.83c2.62-2.97,4.64-6.36,4.06-10.74c-0.42-3.15-2.49-5.44-5.71-5.58c-1.49-0.07-3,0.09-4.49-0.05
				c-3.05-0.28-4.72,1.69-5.67,3.96c-0.59,1.41-1.63,2.94-1.22,4.72c0.74,3.19-1.52,5.65-2.12,8.51c-0.1,0.48-0.6,0.8-1.15,0.65
				c-0.51-0.14-0.73-0.55-0.75-1.1c-0.16-6.43-0.35-12.82,2.08-19.02c1.87-4.76-0.32-10.8-4.45-13.4c-1.86-1.17-3.89-1.59-6.15-1.11
				c-3.17,0.66-5.67,2.21-8,4.45c-0.96,0.92-1.32,1.62-1.41,2.81c-0.28,3.7,0.84,7.1,1.86,10.58
				C766.24,152.31,767.53,155.73,767.25,160.27z M778.32,124.82c-0.65-3.09-2.35-6.15-5.23-8.53c-0.89-0.74-1.56-0.06-2.07,0.57
				c-2.28,2.82-3.59,6.11-4.46,9.58c-0.17,0.67,0.23,1.57,0.99,1.21c2.84-1.35,5.81-0.7,8.72-0.79
				C777.32,126.82,778.28,126.81,778.32,124.82z M797.91,133.85c-0.3,0.11-0.91,0.15-1.15,0.46c-1.77,2.33-3.5,4.69-5.14,7.11
				c-0.39,0.57,0.07,1.08,0.75,1.49c2.14,1.31,4.49,0.63,6.73,0.95c3.55,0.5,3.7,0.34,2.66-3.04c-0.53-1.7-0.99-3.42-1.6-5.08
				C799.82,134.82,799.21,134.02,797.91,133.85z M745.34,142.39c-0.12,2.51,0.33,2.81,2.91,1.98c5.93-1.92,5.93-1.92,3.03-7.54
				c-0.38-0.73-0.66-1.52-1.11-2.21c-0.63-0.96-1.65-0.77-1.94,0.05C747.32,137.26,745.43,139.49,745.34,142.39z"/>
			<path class="st1" d="M745.21,308.78c-3.5,0-7-0.04-10.49,0.02c-1.72,0.03-3.12-0.34-4.57-1.46c-1.17-0.89-1.9-1.58-1.87-3.11
				c0.1-6.83-0.49-13.73,0.28-20.47c1.47-12.78,0.92-25.57,0.51-38.3c-0.22-6.75-0.61-13.54-0.74-20.31
				c-0.06-3.38,1.22-4.95,4.52-5.25c2.63-0.24,5.42-0.38,7.93,0.25c3.49,0.87,6.71,0.82,10.19-0.02c2.52-0.61,5.3-0.41,7.94-0.23
				c2.18,0.15,4.46,2.89,4.4,5.23c-0.08,2.78,0.16,5.53-0.57,8.38c-0.73,2.82-0.32,5.94-0.29,8.93c0.01,1.29,1.4,1.82,2.51,0.97
				c1.05-0.81,1.95-1.8,2.92-2.71c4.11-3.86,7.87-8.06,12.24-11.66c4.09-3.37,8.5-6.58,13.46-7.62c6.65-1.39,13.85-2.32,19.6,3.32
				c2.62,2.57,4.54,5.55,5.15,9.22c0.19,1.14,0.38,2.23,0.73,3.35c0.76,2.46-0.41,3.67-3.1,3.6c-0.33-0.01-0.67-0.04-1-0.05
				c-1.73-0.07-3.55-2.12-5.07-0.51c-1.27,1.34-0.29,3.51-0.5,5.3c-0.3,2.59-0.78,3.19-3.34,3.27c-2.5,0.08-5-0.06-7.49,0.02
				c-2.64,0.09-2.99,0.6-2.47,3.22c0.03,0.16,0.2,0.3,0.21,0.45c0.3,5.71,0.13,7.24-6.21,5.91c-3.49-0.73-5.69-0.04-7.96,2.12
				c-0.72,0.69-1.47,1.36-2.22,2.01c-1.86,1.6-2.06,2.77-0.64,4.46c1.72,2.05,4.01,2.7,6.63,2.71c4.47,0.02,5.05,0.64,5.52,5.3
				c0.07,0.66,0.04,1.33,0.05,2c0.02,1.56,0.79,2.64,2.35,2.64c3.14,0.02,6.1,1.23,9.3,1.11c4.42-0.15,5.26,1.18,4.49,5.63
				c-0.22,1.28-0.54,2.71,0.15,3.9c0.75,1.29,1.75,2.45,3.53,2.34c3.78-0.23,7.64,0.65,11.34-0.67c0.96-0.34,1.53,0.17,2.28,0.48
				c0.88,0.37,1.12,0.56,0.79,1.71c-2.37,8.29-9.33,14.07-17.91,14.46c-3.82,0.17-7.67,0.24-11.49,0.04
				c-5.42-0.28-10.13-2.79-14.3-5.97c-6.17-4.7-12.68-9.07-17.69-15.15c-0.33-0.41-0.66-0.77-1.2-0.58
				c-0.51,0.18-0.67,0.64-0.66,1.16c0.02,1.17-0.3,2.46,0.1,3.47c1.34,3.4,0.7,6.9,0.78,10.34c0.1,4.42-2.07,6.6-6.6,6.73
				C752.87,308.87,749.04,308.78,745.21,308.78z"/>
			<path class="st1" d="M595.52,308.78c-4.33,0-8.66-0.1-12.98,0.03c-3.04,0.1-5.17-1.1-6.05-3.94c-1.5-4.83-4.77-6.77-9.67-7.49
				c-4.81-0.71-9.51-0.73-14.25-0.07c-0.78,0.11-1.56,0.44-2.4,0.46c-3.51,0.1-5.86,1.85-7.25,5.03c-0.39,0.9-1,1.72-1.35,2.63
				c-0.98,2.49-2.72,3.42-5.4,3.39c-8.82-0.11-17.64,0-26.46-0.06c-4.93-0.03-6.5-2.63-4.22-7.14c3.26-6.45,6.88-12.71,10.43-19.01
				c3.23-5.72,6.05-11.68,8.86-17.63c4.27-9.02,8.84-17.89,12.9-27.02c2.38-5.36,4.34-10.94,7.2-16.1c1.94-3.51,3.14-3.91,6.68-2.01
				c0.29,0.16,0.6,0.29,0.85,0.5c3.77,3.13,7.81,2.88,11.98,0.97c1.2-0.55,2.36-1.16,3.56-1.7c2.44-1.1,3.55-0.88,4.98,1.28
				c0.81,1.22,1.42,2.6,1.99,3.96c3.43,8.14,7.16,16.14,10.94,24.13c3.94,8.33,7.94,16.62,12.15,24.81
				c4.42,8.6,9.09,17.06,13.65,25.58c0.47,0.87,1.04,1.71,1.39,2.62c1.64,4.31,0.07,6.68-4.56,6.76
				C604.18,308.85,599.85,308.79,595.52,308.78C595.52,308.79,595.52,308.78,595.52,308.78z M558.64,272.74c0,0,0,0.01,0,0.01
				c2,0,4,0.12,5.99-0.03c2.96-0.22,4.26-2.46,3.14-5.16c-0.88-2.12-1.74-4.34-2.84-6.23c-1.06-1.81-1.38-4-2.99-5.57
				c-2.46-2.41-3.99-2.4-5.69,0.67c-1.91,3.45-3.58,7.04-5.41,10.54c-0.5,0.96-0.4,1.93-0.4,2.91c0,1.79,0.9,2.8,2.71,2.84
				C554.97,272.78,556.81,272.74,558.64,272.74z"/>
			<path class="st1" d="M449.57,308.79c-3.83,0-7.66,0.02-11.49-0.01c-1.3-0.01-2.59,0.15-3.87-0.59c-1.09-0.64-1.84-1.22-1.77-2.61
				c0.44-7.93-0.82-15.91,0.91-23.8c0.24-1.12,0.08-2.32,0.08-3.49c0-9.66,0.44-19.34-0.14-28.96c-0.46-7.61-0.8-15.2-0.86-22.81
				c-0.01-1-0.1-2.01,0.01-3c0.23-2.08,1.81-3.39,3.93-3.73c2.56-0.4,4.78,1.06,7.29,1.03c8.16-0.11,16.32-0.05,24.47-0.02
				c2.98,0.01,5.8-0.94,8.79-1.1c7.11-0.39,13.35,2.01,19.15,5.49c8.21,4.93,12.4,12.67,14.5,21.92c2.32,10.22-1.12,18.9-6.92,26.64
				c-3.83,5.11-9.57,8.25-15.9,10.07c-5.06,1.45-10.19,0.93-15.29,0.99c-1.8,0.02-3.16,0.48-4.4,1.79
				c-1.11,1.16-1.62,2.35-1.57,3.98c0.11,3.99-0.24,8.01,0.1,11.98c0.37,4.29-1.81,6.67-6.06,6.28
				C456.92,308.52,453.24,308.78,449.57,308.79C449.57,308.79,449.57,308.79,449.57,308.79z M465.56,252.63
				c-0.15,8.03-0.07,7.17,7.34,7.18c0.83,0,1.66-0.01,2.49-0.01c0.84-0.01,1.6-0.15,2.3-0.73c2.92-2.44,3.06-5.72,2.69-9.07
				c-0.34-3.13-2.71-4.64-5.41-4.81c-7.38-0.48-9.8-2.01-9.4,6.95C465.57,252.3,465.56,252.46,465.56,252.63z"/>
			<path class="st1" d="M586.37,115.97c-1.43,5.98-0.23,13.2-1.11,20.22c-1.55,12.27-0.38,24.54-0.76,36.79
				c1.57,5.69,0.8,11.5,0.94,17.26c0.04,1.48,0.33,2.84,0.78,4.3c1.18,3.82-1.91,6.62-5.85,5.79c-8.45-1.77-16.88-2.41-25.33,0.19
				c-3.29,1.01-5.58-0.73-5.66-4.13c-0.15-6.33-0.56-12.68,0.95-18.95c0.27-1.11,0.08-2.32,0.08-3.49
				c0.01-10.49-0.03-20.98,0.05-31.47c0.07-8.95-1.64-17.82-1.12-26.79c0.04-0.66,0.03-1.33-0.01-2c-0.34-6.01,0.68-6.76,7.22-5.62
				c3.18,0.56,6.49,1.06,9.65,1.45c3.95,0.48,8.19-0.35,12.14-1.29C582.99,107.16,586.69,107.3,586.37,115.97z"/>
			<path class="st0" d="M478.91,165.81c-1.83,0-3.66,0.04-5.5-0.01c-3.3-0.08-3.83-0.53-3.86-3.66c-0.06-5.83-0.04-11.66-0.01-17.49
				c0.01-2.3,0.84-3.59,3.03-3.61c4.93-0.04,9.95-0.84,14.78,0.88c4.58,1.63,7.4,6.35,6.38,11.2c-0.41,1.94,0,3.89-0.77,5.85
				c-1.69,4.32-4.6,6.75-9.07,6.83C482.24,165.85,480.58,165.82,478.91,165.81C478.91,165.82,478.91,165.81,478.91,165.81z"/>
			<path class="st0" d="M660.67,258.83c-1.69-0.32-4.33,0.97-5.76-0.61c-1.37-1.51-0.46-4.11-0.53-6.22
				c-0.06-1.82-0.09-3.64,0.04-5.46c0.15-2.09,1.41-3.23,3.28-2.45c2.46,1.03,4.88,0.49,7.31,0.64c3.35,0.2,5.67,1.89,6.24,5.08
				c0.37,2.11,0.23,4.28-0.94,6.22c-1.08,1.8-2.47,3.03-4.79,2.83C664.05,258.73,662.55,258.83,660.67,258.83z"/>
			<path class="st0" d="M767.25,160.27c0.28-4.53-1.01-7.95-2.02-11.39c-1.02-3.48-2.14-6.88-1.86-10.58
				c0.09-1.19,0.45-1.88,1.41-2.81c2.34-2.23,4.84-3.78,8-4.45c2.26-0.47,4.28-0.06,6.15,1.11c4.13,2.59,6.31,8.63,4.45,13.4
				c-2.43,6.21-2.24,12.59-2.08,19.02c0.01,0.55,0.24,0.96,0.75,1.1c0.54,0.15,1.04-0.17,1.15-0.65c0.6-2.87,2.86-5.32,2.12-8.51
				c-0.41-1.77,0.63-3.3,1.22-4.72c0.94-2.27,2.62-4.24,5.67-3.96c1.49,0.14,3-0.02,4.49,0.05c3.22,0.15,5.3,2.43,5.71,5.58
				c0.58,4.38-1.44,7.77-4.06,10.74c-2.57,2.92-4.48,5.85-5.18,9.83c-0.68,3.92-4.3,6.09-7.2,8.4c-1.56,1.25-2.88,2.47-4.09,4.09
				c-3.68,4.92-12.32,5.64-15.68,0.42c-1.71-2.65-3.91-4.52-6.45-5.91c-3.52-1.92-5.35-4.98-6.25-8.5
				c-0.75-2.97-1.98-5.23-4.13-7.46c-2.58-2.69-4.51-5.92-4.13-10.17c0.34-3.83,2.16-5.83,5.54-7.32c3.26-1.43,5.79-0.28,8.19,1.44
				c2.58,1.84,3.69,4.56,3.46,7.79c-0.16,2.32-0.09,4.63,1.26,6.68c0.46,0.7,1.02,1.46,1.96,1.19c0.81-0.23,1.45-0.95,1.55-1.79
				C767.35,161.77,767.25,160.59,767.25,160.27z"/>
			<path class="st0" d="M797.91,133.85c1.3,0.17,1.91,0.97,2.25,1.9c0.61,1.67,1.07,3.39,1.6,5.08c1.05,3.38,0.9,3.54-2.66,3.04
				c-2.24-0.32-4.59,0.36-6.73-0.95c-0.68-0.41-1.13-0.92-0.75-1.49c1.64-2.42,3.37-4.78,5.14-7.11
				C797,134,797.61,133.96,797.91,133.85z"/>
			<path class="st0" d="M745.34,142.39c0.09-2.89,1.98-5.13,2.89-7.72c0.29-0.82,1.32-1.01,1.94-0.05c0.45,0.68,0.73,1.48,1.11,2.21
				c2.9,5.63,2.9,5.63-3.03,7.54C745.68,145.2,745.23,144.9,745.34,142.39z"/>
			<path class="st0" d="M558.64,272.74c-1.83,0-3.66,0.04-5.49-0.01c-1.81-0.05-2.71-1.06-2.71-2.84c0-0.98-0.1-1.95,0.4-2.91
				c1.83-3.5,3.5-7.08,5.41-10.54c1.7-3.07,3.23-3.08,5.69-0.67c1.6,1.57,1.93,3.76,2.99,5.57c1.1,1.89,1.96,4.11,2.84,6.23
				c1.12,2.69-0.18,4.93-3.14,5.16c-1.99,0.15-3.99,0.03-5.99,0.03C558.64,272.75,558.64,272.74,558.64,272.74z"/>
			<path class="st0" d="M465.56,252.63c0-0.17,0.01-0.33,0-0.5c-0.4-8.96,2.02-7.43,9.4-6.95c2.7,0.18,5.07,1.69,5.41,4.81
				c0.37,3.35,0.23,6.63-2.69,9.07c-0.69,0.58-1.46,0.72-2.3,0.73c-0.83,0.01-1.66,0.01-2.49,0.01
				C465.48,259.8,465.4,260.66,465.56,252.63z"/>
		</g>
	</g>
	<g>
		<path class="st0" d="M347.32,378.81c-5.16,0-10.33-0.13-15.49,0.04c-4.05,0.14-7.85-0.76-11.66-1.92
			c-5.83-1.78-11.74-3.28-17.49-5.27c-3-1.04-5.95-0.89-8.85-0.52c-6.4,0.82-12.83,1.25-19.25,1.86c-4.6,0.43-9.18,1.13-13.76,1.7
			c-3.61,0.45-7.24,0.34-10.88,0.93c-3.72,0.6-7.59,0.47-11.35,1.11c-6.81,1.15-13.06-1.37-19.42-3.07
			c-4.29-1.15-8.51-2.57-12.84-3.57c-1.9-0.44-4-0.35-5.96-0.11c-6.55,0.82-13.05,2.12-19.61,2.64c-6.12,0.49-12.06,2.08-18.18,2.41
			c-1.63,0.09-3.24,0.63-4.87,0.81c-2.8,0.3-4.22-0.91-5.05-3.6c-1.3-4.18-1.14-8.56-1.49-12.8c-0.45-5.44-1.12-10.88-1.65-16.3
			c-0.48-4.93-0.61-9.9-1.34-14.83c-1.03-6.95-0.87-13.93,2.68-20.38c2.09-3.8,0.53-7.81,0.53-11.72c0-1.14-0.42-2.28-0.46-3.42
			c-0.32-10.28-1.84-20.46-2.38-30.72c-0.58-10.9-1.89-21.76-2.91-32.64c-0.18-1.97-0.62-3.92-0.72-5.9
			c-0.31-6.14,0.1-12.16,1.73-18.2c3.15-11.63,5.82-23.38,8.67-35.09c0.82-3.37,1.63-6.74,2.33-10.14c0.41-1.96,0.51-3.97,0.24-5.97
			c-0.92-6.88-1.87-13.75-2.78-20.64c-0.46-3.44-0.84-6.89-1.27-10.34c-0.73-5.91-1.44-11.82-2.21-17.72
			c-0.25-1.93-1.17-3.03-3.3-3.68c-4.13-1.26-8.36-1.96-12.56-2.65c-7.49-1.23-15.02-2.44-22.58-2.82
			c-6.91-0.34-13.94-1.21-20.83,0.66c-7.01,1.9-12.44,5.93-16.29,12.06c-2.85,4.54-6.27,8.49-11.02,11.13
			c-5.3,2.94-12.27,2.95-18.1-1.72c-1.44-1.15-1.99-2.7-1.44-4.84c1.63-6.35,4.49-12.08,8.05-17.49
			c10.34-15.69,25.09-25.05,43.06-29.67c5.14-1.32,10.34-2.31,15.69-2.17c2.98,0.08,5.84-1.08,8.88-0.76
			c8.54,0.91,17.19,1.15,25.57,3.1c6.89,1.61,13.95,2.65,20.61,5.18c0.8,0.31,1.63,0.67,2.4,0.37c5.8-2.27,11.47-0.08,17.17,0.48
			c4.44,0.44,8.84,1.16,13.26,1.75c6.05,0.8,12.1,1.56,18.15,2.39c5.73,0.78,11.44,1.69,17.18,2.41c1.8,0.23,3.57-0.07,5.33-0.84
			c6.2-2.73,12.51-5.17,18.7-7.92c4.74-2.11,9.68-3.42,14.81-3.72c2.58-0.15,5.23,0.6,7.83,1.06c10.07,1.79,20.19,3.29,30.22,5.37
			c5.32,1.11,10.77,1.58,16.17,2.33c5.12,0.72,9.69,2.28,12.13,7.41c0.81,1.71,2.53,2.13,4.15,2.36c5.56,0.79,11.13,1.55,16.71,2.13
			c4.59,0.48,8.74,1.59,11.84,5.37c2.29,2.8,3.26,6.04,3.87,9.48c1.63,9.26,3.6,18.48,4.82,27.8c1.31,10.01,3.52,19.83,5.14,29.77
			c0.73,4.47,0.48,9.02-0.14,13.46c-1.28,9.16-2.58,18.31-3.88,27.47c-1.57,11.12-2.55,22.31-4.52,33.38
			c-1.19,6.67-1.54,13.48-2.4,20.21c-0.84,6.55-1.72,13.1-2.84,19.6c-0.36,2.1-0.23,4.11-0.15,6.18c0.42,9.96,0.8,19.92,1.21,29.88
			c0.18,4.3,1.27,8.58,0.7,12.89c-1.35,10.23-0.53,20.54-1.49,30.81c-0.63,6.76-1.35,13.49-2.22,20.22
			c-0.55,4.28-1.39,5.08-5.69,5.1c-6.16,0.03-12.33,0.01-18.49,0.01C347.32,378.94,347.32,378.88,347.32,378.81z M363.47,272.03
			c-0.97,1.86-2.25,3.62-2.84,5.59c-1.3,4.31-3.34,8.27-5.3,12.27c-3.1,6.33-6.95,12.19-10.93,18c-2.53,3.68-5.03,7.37-8.49,10.21
			c-4.54,3.72-9.49,6.55-15.75,6.22c-4.13-0.22-8.23-0.31-12.37-0.9c-7.23-1.02-13.64-3.95-19.79-7.49
			c-9.18-5.29-15.42-13.41-20.25-22.65c-6.05-11.59-9.22-24-10.2-37c-0.05-0.65-0.22-1.85-0.34-1.85c-0.93,0-1.34,0.74-1.67,1.53
			c-2.28,5.49-4.4,11.03-6.01,16.76c-1.79,6.38-2.91,12.89-3.75,19.43c-0.7,5.41-1.29,10.95-0.9,16.36
			c0.55,7.56,1.17,15.13,2.42,22.66c1.83,10.98,5.19,21.46,8.92,31.87c1.13,3.15,1.31,3.19,4.73,3c4.96-0.28,9.92-1.12,14.86-0.99
			c4.85,0.13,9.44-1.04,14.14-1.63c4.46-0.57,9.02-1.09,13.41-0.19c4.81,0.99,9.44,2.86,14.18,4.26c3,0.88,5.83,2.66,9.02,2.58
			c8.64-0.22,17.23,1.26,25.87,0.76c0.41,0,0.82,0.01,1.23,0.01c2.32,0.04,4.65,0.13,6.97,0.12c2.5-0.01,3.32-0.58,3.69-2.91
			c0.48-2.93,0.93-5.88,1.06-8.83c0.31-7.11,0.48-14.23,0.89-21.34c0.51-8.94,0.27-17.93,0.21-26.9c-0.05-7.95-1.3-15.86-1.05-23.82
			c0.08-2.66-0.22-5.27-0.69-7.88c0.76-0.42,0.8-0.84,0.01-1.27c-0.45-2.06,0.63-3.91,0.8-5.88c0.02-0.96,0.07-1.92,0.04-2.88
			c-0.01-0.28-0.27-0.56-0.41-0.84c-0.23,0.17-0.6,0.29-0.66,0.5C364.22,269.96,363.19,270.78,363.47,272.03z M166.73,155.34
			c0.56,3.57-0.75,6.92-1.44,10.24c-1.76,8.41-5.15,16.44-5.77,25.13c-0.03,0.47-0.16,1.09-0.48,1.35
			c-1.48,1.23-1.19,2.93-1.52,4.54c-0.74,3.5-2.09,6.88-2,10.54c-3.01,4.7-1.69,9.96-1.89,15.02c-0.1,2.48-0.15,5.02,0.25,7.45
			c0.73,4.52,1.49,9.02,1.68,13.59c0.13,3.16-0.29,6.38,0.19,9.48c0.98,6.33,1.51,12.68,1.92,19.07c0.16,2.44-1.24,5.35,1.74,7.19
			c0.24,0.15,0.11,0.95,0.12,1.44c0.01,10.32,0.03,20.64,0.01,30.96c0,1.08-0.15,1.9-1.16,2.92c-2.39,2.41-3.45,5.74-2.57,9.12
			c1.39,5.3,1.95,10.64,1.82,16.08c-0.05,1.99,0.11,3.89,0.88,5.8c0.86,2.13,1.16,4.4,1.07,6.76c-0.11,3.16-0.04,6.33,0.07,9.49
			c0.15,3.9,0.89,4.59,4.62,4.6c1.5,0,3.11,0.3,4.47-0.15c5.49-1.82,11.26-1.85,16.87-2.66c6.77-0.98,13.62-1.49,20.34-2.86
			c0.49-0.1,0.88-0.18,1.34,0.2c4.35,3.53,9.51,3.7,14.75,3.51c1.38-0.05,1.95-0.96,1.09-1.89c-2.87-3.07-3.74-7.13-5.41-10.77
			c-0.53-1.15-2.01-1.25-2-2.54c0.04-4.69-5.16-7.52-4.44-12.48c0.06-0.4-0.37-0.91-0.66-1.3c-2.15-2.92-3.6-6.01-3.13-9.82
			c0.13-1.04-0.5-2.21-0.93-3.26c-1.73-4.26-3.63-8.47-3-13.27c0.06-0.46-0.14-0.97-0.3-1.43c-2.02-5.8-2.45-11.8-2.67-17.89
			c-0.15-4.09,0.93-8.28-0.81-12.29c-0.22-0.5,0-1.36,0.31-1.87c0.77-1.25,0.51-2.59,0.51-3.89c0.01-5.93,0.82-11.8,2.19-17.51
			c0.62-2.58,0.22-5.3,1.34-7.69c2.49-5.34,3.36-11.19,5.44-16.66c1.38-3.61,2.23-7.51,4.29-10.75c3.12-4.89,4.68-10.56,8.4-15.2
			c1.88-2.35,2.55-5.56,4.97-7.95c2.35-2.32,4.02-5.43,6.02-8.16c2.07-2.82,3.95-5.81,6.42-8.28c3.61-3.61,6.17-8.22,10.65-11.03
			c1.63-1.02,1.75-2.64,0.67-4.11c-0.49-0.66-1.12-1.23-1.72-1.81c-4.87-4.71-9.73-9.43-14.64-14.11
			c-7.71-7.35-15.19-12.51-26.16-18.15c-0.45-0.23-0.81-0.57-0.78-1.13c0.08-1.29-0.93-1.57-1.8-2.04
			c-3.8-2.07-7.48-4.43-11.27-6.43c-6.69-3.53-13.46-7.04-20.65-9.56c-2.96-1.03-5.79-2.43-8.76-3.42
			c-2.35-0.78-5.14,0.93-4.51,2.74c1.07,3.09,0.3,6.29,1.06,9.28c1.13,4.48,1.87,8.96,1.84,13.57c-0.01,0.98,0.05,2.02,0.38,2.92
			C166.32,142.25,165.11,148.99,166.73,155.34z M204.8,83.23c-0.88,0-1.22-0.02-1.55,0c-0.64,0.05-1.35,0-1.5,0.9
			c-0.13,0.81,0.44,1.35,0.97,1.58c1.65,0.7,3.36,1.19,4.98,2.03c4.33,2.27,8.74,4.39,13.13,6.54c5.67,2.77,10.52,7.14,16.85,8.63
			c8.98,5.98,18.3,11.52,26.83,18.08c7.93,6.09,15.64,12.58,22.45,20.02c3.08,3.37,6.92,6.03,9.84,9.45
			c2.33,2.73,5.23,4.98,7.07,8.22c1.54,2.71,4.65,4.24,6.1,7.13c3.73-0.27,3.74,3.39,5.49,5.2c2.37,2.45,4.07,5.4,6.1,8.11
			c1.11,1.49,2.86,2.55,3.79,4.12c1.87,3.16,3.73,6.35,5.56,9.51c1.87,3.22,4.14,6.28,5.72,9.79c2.03,4.5,4.44,8.92,6.86,13.28
			c1.95,3.51,3.48,7.22,5.09,10.9c1.32,3.01,3.69,5.62,3,9.29c-0.15,0.81,0.24,1.58,0.59,2.36c3.47,7.76,5.35,16.02,7.39,24.22
			c0.11,0.42-0.01,0.95,0.53,1.08c0.09,0.02,0.38-0.48,0.47-0.78c0.98-3.26,3.38-6.07,3.03-9.74c-0.08-0.86,0.29-1.58,0.7-2.33
			c2.88-5.2,3.43-11.15,5.23-16.71c1.73-5.33,2.39-10.89,2.13-16.52c-0.05-0.96-0.15-2.53,0.35-2.81c2.35-1.36,1.34-3.49,1.55-5.32
			c0.19-1.64,0.09-3.31,0.37-4.93c0.7-4.02,1.75-7.99,1.65-12.12c-0.06-2.49,0.01-4.99,0.07-7.49c0.02-0.8-0.37-1.96,0.43-2.32
			c2.14-0.97,1.35-2.79,1.46-4.31c0.25-3.58-0.43-7.25,1.7-10.61c0.74-1.17,0.56-2.92-0.09-4.33c-1.48-3.24-1.73-6.65-1.62-10.13
			c0.03-0.96,0.4-2.35-0.55-2.77c-1.73-0.77-1.42-2.13-1.32-3.36c0.25-3.03-0.73-5.85-1.51-8.66c-0.37-1.32-0.61-2.59-0.5-3.87
			c0.3-3.36-0.55-6.56-1.31-9.73c-0.31-1.27-0.6-2.51-0.77-3.82c-0.6-4.69-2.57-9.17-2.09-14.03c0.03-0.27-0.27-0.6-0.45-0.87
			c-1.28-1.86-1.53-3.96-1.47-6.15c0.02-0.68-0.18-1.68-0.81-1.58c-2.12,0.35-3.05-1.93-4.61-2.06c-6.21-0.51-12.21-2.61-18.53-2.21
			c-4.48,0.28-7.96-1.39-9.6-5.91c-0.64-1.76-1.6-3.41-3.51-3.87c-4.11-1.01-8.11-2.76-12.51-2.11c-0.81,0.12-1.78,0.23-2.47-0.1
			c-4.08-1.9-8.6-1.81-12.83-2.95c-1.6-0.43-3.11-0.98-4.8-0.88c-5.65,0.33-10.95-1.7-16.39-2.69c-4.55-0.83-8.75-1.76-13.35,0.22
			c-2,0.86-4.13,1.71-6.23,2.5c-4.24,1.6-8.63,3.09-12.51,5.23c-4.01,2.22-7.94,2.49-12.21,2.88c-4.42,0.41-8.73-0.44-13.1-0.23
			c-1.3,0.06-2.57-0.31-3.86-0.56C214.94,84.6,209.59,83.94,204.8,83.23z M120.22,70.17c-8.24,0.01-16.35,0.39-24.37,2.91
			c-8.37,2.63-16.32,5.77-23.12,11.47c-4.02,3.37-8.24,6.51-11.03,11.09c-0.25,0.42-0.81,1.05-0.7,1.21
			c0.42,0.59,1.18,0.35,1.83,0.41c2.02,0.19,3.09-1.63,4.86-2.2c9.29-2.96,18.79-4.49,28.47-4.79c9.1-0.29,18.24-0.36,27.28,1.05
			c3.1,0.48,6.29,0.42,9.28,1.1c6.67,1.5,13.54,2.12,19.99,4.65c3.01,1.18,6.35,1.52,9.46,2.47c3.12,0.95,6.1,2.3,9.24,3.23
			c3.28,0.97,6.7,1.99,9.52,3.82c2.74,1.77,5.79,2.62,8.56,4.13c2.4,1.31,5.06,2.14,6.98,4.36c1.2,1.39,3.74,0.61,4.96,1.76
			c2.54,2.38,5.48,3.83,8.5,5.45c8.84,4.74,16.59,11.16,24.5,17.3c4.24,3.3,7.82,7.39,11.99,10.69
			c6.91,5.48,12.58,12.13,18.13,18.76c6.17,7.36,11.96,15.08,17.16,23.25c5.29,8.32,9.87,17.03,14.47,25.68
			c3.64,6.86,5.59,14.61,8.35,21.95c2.25,5.99,3.39,12.26,4.99,18.42c0.78,3,1.45,6.03,2.11,9.05c0.54,2.46,3.25,3.07,4.3,5.22
			c0.53,1.08,2.47,0.43,3.77,0.56c4.11,0.41,7.63-1.54,11.33-2.82c3.85-1.33,7.67-2.94,11.79-3.13c2.65-0.12,5.23-0.32,7.79-1.08
			c2.6-0.77,3.26-1.48,2.88-4.21c-0.29-2.1-0.59-4.24-1.24-6.24c-3.13-9.63-6.24-19.25-10.57-28.48
			c-2.92-6.22-5.94-12.39-9.11-18.48c-4.4-8.45-9.69-16.37-15.2-24.13c-7.27-10.24-15.36-19.81-23.91-28.98
			c-5.15-5.52-11-10.32-16.36-15.6c-5.92-5.84-12.68-10.59-19.23-15.53c-7.17-5.4-14.67-10.46-22.41-15.14
			c-9.69-5.85-19.74-10.98-29.85-15.95c-5.65-2.78-11.51-5.32-17.5-7.48c-10.89-3.92-21.67-8.05-32.91-11.01
			C143.7,71.88,132.11,70.07,120.22,70.17z M238.14,368.02c3.52,0.78,6.76-1.22,10.29-0.97c2.2,0.15,2.64-0.59,1.84-2.71
			c-2.37-6.26-4.41-12.6-6.1-19.09c-2.53-9.71-4.36-19.49-4.59-29.54c-0.03-1.33,0.29-2.82-0.21-3.95c-1.09-2.45-1-5.03-0.55-7.35
			c0.82-4.28,0.32-8.61,0.98-12.81c0.52-3.27,0.38-6.62,1.1-9.79c1.45-6.35,3.1-12.66,5.33-18.8c3.13-8.64,6.91-16.95,11.76-24.79
			c2.53-4.1,2.12-3.24-0.93-5.97c-2.09-1.87-4.05-3.88-5.02-6.49c-2.58-6.94-4.25-14.09-4.36-21.56c-0.04-2.83,0.84-5.58,0.81-8.31
			c-0.08-5.86,1.61-11.35,2.8-16.94c0.15-0.69,0.33-1.31-0.4-1.64c-0.46-0.2-0.88,0.13-1.23,0.55c-2.94,3.51-5.91,6.98-8.85,10.49
			c-4.75,5.68-9.24,11.58-12.83,18.04c-2.83,5.09-5.52,10.29-8.13,15.51c-4.57,9.17-7.62,18.81-10.02,28.58
			c-2.51,10.19-3.11,20.77-3.29,31.33c-0.08,4.66,0.69,9.2,1.04,13.8c0.31,4.08,0.92,8.12,1.8,12.13c0.88,3.98,2.09,7.89,2.99,11.83
			c2.4,10.63,6.69,20.5,11.21,30.29c2.19,4.74,4.94,9.22,7.25,13.91C232.36,366.94,234.27,369.07,238.14,368.02z M317.33,318.16
			c1.5,0,3.01-0.13,4.49,0.03c2.85,0.3,5.25-0.94,7.3-2.49c1.65-1.25,3.04-2.83,4.95-3.8c0.55-0.28,1.23-0.89,1.3-1.42
			c0.28-2.12,1.98-3.27,3.19-4.65c2.11-2.41,3.43-5.28,5.19-7.87c3.6-5.31,6.31-11.07,9.16-16.75c1.67-3.33,2.87-6.9,4.24-10.38
			c0.05-0.13-0.25-0.44-0.45-0.6c-0.09-0.07-0.33-0.01-0.48,0.05c-0.87,0.37-0.77,1.95-2.1,1.74c-2.86-0.45-5.5,0.82-8.25,1.19
			c-3.99,0.54-8.09,1.09-11.78,2.99c-5.13,2.64-10.61,3.38-16.27,2.85c-1.92-0.18-4.33-0.25-5.59-1.39
			c-2.79-2.52-5.73-5.11-6.66-9.18c-0.64-2.8-1.08-6.14-2.86-8.11c-6.54-7.23-14.24-13.16-22.99-17.56
			c-2.76-1.39-5.65-2.41-8.33-4.08c-4.39-2.74-8.57-0.03-8.78,5.26c-0.01,0.33-0.01,0.67,0,1c0.18,3.93-0.18,7.85,0.84,11.8
			c0.8,3.11,0.23,6.46,1.02,9.76c1.92,8.09,4.3,15.95,8.31,23.26c0.98,1.79,1.39,3.81,3.52,5.07c1.12,0.66,0.9,3.41,2.01,4.26
			c3.14,2.39,5.01,6.06,8.16,8.22C295.73,313.75,305.63,318.64,317.33,318.16z M253.71,204.8c0.5,6.24,0.61,13.2,4.43,19.41
			c1.98,3.21,4.44,5.57,8.06,6.97c7.38,2.85,14.78,5.69,21.55,9.92c4.07,2.54,8.18,5,11.75,8.25c0.33,0.3,1.02,0.61,1.3,0.46
			c0.76-0.4,0.33-1.06,0.12-1.68c-2.29-6.88-4.58-13.77-7.36-20.48c-1.48-3.59-1.4-3.73-5.31-3.56c-5.67,0.26-11.29,0.09-16.62-2.01
			c-7.18-2.83-12.2-7.44-13.38-15.68c-0.64-4.46,0.42-8.49,1.51-12.57c0.97-3.68,2.9-7.01,4.97-10.21c0.87-1.34,1.46-2.75,0.44-4.15
			c-1.45-2-3.06-3.9-4.68-5.78c-0.63-0.73-1.41-0.84-1.9,0.23c-0.28,0.6-0.55,1.22-0.71,1.86
			C255.53,185.08,254.04,194.51,253.71,204.8z M282.41,218.15c1.62,0,2.95,0.05,4.28-0.01c1.81-0.09,2.17-0.53,1.37-2.02
			c-2.79-5.2-4.97-10.7-8.34-15.61c-2.77-4.04-4.99-8.45-8.08-12.3c-0.86-1.07-1.38-1.24-2.27-0.35c-0.7,0.69-1.3,1.43-1.81,2.32
			c-1.82,3.16-3.11,6.62-3.74,10.07c-1.12,6.1,0.25,12.43,7.53,15.38C275.05,217.13,278.63,218.55,282.41,218.15z M57.92,116.23
			c2.8,0.03,5.61-1.61,8.02-4c3.54-3.5,5.84-7.96,9.02-11.75c0.2-0.24,0.27-0.58,0.41-0.87c-0.46-0.13-0.97-0.46-1.36-0.35
			c-6.88,1.98-13.21,5.01-18.55,9.89c-0.85,0.78-1.7,1.62-2.31,2.58c-1.29,2.05-0.38,3.92,2.05,4.35
			C55.84,116.21,56.51,116.17,57.92,116.23z"/>
		<path class="st2" d="M166.73,155.34c-1.62-6.35-0.4-13.1-2.73-19.38c-0.33-0.9-0.38-1.94-0.38-2.92
			c0.03-4.62-0.71-9.09-1.84-13.57c-0.76-2.99,0.01-6.19-1.06-9.28c-0.63-1.81,2.17-3.53,4.51-2.74c2.97,0.99,5.81,2.38,8.76,3.42
			c7.2,2.52,13.96,6.03,20.65,9.56c3.79,2,7.47,4.36,11.27,6.43c0.87,0.48,1.88,0.75,1.8,2.04c-0.03,0.56,0.33,0.9,0.78,1.13
			c10.97,5.64,18.45,10.8,26.16,18.15c4.9,4.68,9.76,9.4,14.64,14.11c0.6,0.58,1.23,1.14,1.72,1.81c1.08,1.48,0.96,3.1-0.67,4.11
			c-4.49,2.8-7.04,7.41-10.65,11.03c-2.47,2.47-4.36,5.46-6.42,8.28c-2,2.73-3.67,5.84-6.02,8.16c-2.42,2.38-3.08,5.6-4.97,7.95
			c-3.72,4.64-5.28,10.31-8.4,15.2c-2.06,3.23-2.91,7.14-4.29,10.75c-2.09,5.47-2.95,11.32-5.44,16.66
			c-1.12,2.39-0.71,5.12-1.34,7.69c-1.38,5.71-2.18,11.58-2.19,17.51c0,1.3,0.26,2.64-0.51,3.89c-0.31,0.51-0.52,1.38-0.31,1.87
			c1.74,4.01,0.66,8.2,0.81,12.29c0.22,6.08,0.65,12.09,2.67,17.89c0.16,0.46,0.36,0.97,0.3,1.43c-0.63,4.8,1.27,9.01,3,13.27
			c0.43,1.05,1.06,2.23,0.93,3.26c-0.47,3.81,0.98,6.9,3.13,9.82c0.29,0.39,0.71,0.91,0.66,1.3c-0.73,4.96,4.48,7.78,4.44,12.48
			c-0.01,1.29,1.47,1.39,2,2.54c1.67,3.64,2.53,7.7,5.41,10.77c0.86,0.92,0.29,1.83-1.09,1.89c-5.24,0.2-10.4,0.02-14.75-3.51
			c-0.46-0.38-0.85-0.29-1.34-0.2c-6.73,1.37-13.57,1.88-20.34,2.86c-5.62,0.82-11.39,0.85-16.87,2.66
			c-1.36,0.45-2.97,0.16-4.47,0.15c-3.74-0.01-4.48-0.7-4.62-4.6c-0.12-3.16-0.19-6.33-0.07-9.49c0.09-2.35-0.21-4.63-1.07-6.76
			c-0.78-1.91-0.93-3.82-0.88-5.8c0.12-5.44-0.43-10.78-1.82-16.08c-0.89-3.38,0.18-6.71,2.57-9.12c1.01-1.02,1.16-1.84,1.16-2.92
			c0.02-10.32,0-20.64-0.01-30.96c0-0.5,0.13-1.29-0.12-1.44c-2.97-1.84-1.58-4.75-1.74-7.19c-0.41-6.38-0.94-12.73-1.92-19.07
			c-0.48-3.09-0.06-6.32-0.19-9.48c-0.19-4.57-0.96-9.08-1.68-13.59c-0.39-2.44-0.34-4.97-0.25-7.45c0.2-5.05-1.12-10.31,1.89-15.02
			c-0.09-3.66,1.26-7.04,2-10.54c0.34-1.6,0.05-3.31,1.52-4.54c0.32-0.27,0.44-0.88,0.48-1.35c0.61-8.68,4.01-16.72,5.77-25.13
			C165.98,162.27,167.29,158.91,166.73,155.34z"/>
		<path class="st2" d="M204.8,83.23c4.78,0.71,10.13,1.37,15.41,2.39c1.29,0.25,2.56,0.62,3.86,0.56c4.37-0.21,8.68,0.64,13.1,0.23
			c4.27-0.39,8.2-0.66,12.21-2.88c3.88-2.14,8.27-3.63,12.51-5.23c2.09-0.79,4.23-1.64,6.23-2.5c4.6-1.98,8.81-1.04,13.35-0.22
			c5.44,0.99,10.74,3.02,16.39,2.69c1.69-0.1,3.2,0.45,4.8,0.88c4.23,1.14,8.75,1.05,12.83,2.95c0.69,0.32,1.66,0.22,2.47,0.1
			c4.41-0.65,8.4,1.11,12.51,2.11c1.91,0.47,2.87,2.12,3.51,3.87c1.65,4.51,5.12,6.19,9.6,5.91c6.33-0.4,12.33,1.7,18.53,2.21
			c1.57,0.13,2.5,2.41,4.61,2.06c0.63-0.11,0.83,0.9,0.81,1.58c-0.06,2.19,0.2,4.29,1.47,6.15c0.19,0.27,0.48,0.6,0.45,0.87
			c-0.48,4.86,1.49,9.34,2.09,14.03c0.17,1.31,0.46,2.55,0.77,3.82c0.76,3.17,1.61,6.38,1.31,9.73c-0.11,1.28,0.13,2.55,0.5,3.87
			c0.78,2.81,1.76,5.62,1.51,8.66c-0.1,1.22-0.41,2.58,1.32,3.36c0.95,0.42,0.58,1.81,0.55,2.77c-0.1,3.49,0.14,6.9,1.62,10.13
			c0.65,1.41,0.83,3.16,0.09,4.33c-2.13,3.37-1.45,7.03-1.7,10.61c-0.11,1.52,0.69,3.34-1.46,4.31c-0.8,0.36-0.42,1.52-0.43,2.32
			c-0.06,2.5-0.12,4.99-0.07,7.49c0.09,4.14-0.95,8.1-1.65,12.12c-0.28,1.61-0.19,3.29-0.37,4.93c-0.21,1.83,0.8,3.96-1.55,5.32
			c-0.5,0.29-0.39,1.85-0.35,2.81c0.27,5.64-0.4,11.2-2.13,16.52c-1.8,5.55-2.36,11.5-5.23,16.71c-0.41,0.75-0.79,1.46-0.7,2.33
			c0.35,3.67-2.05,6.49-3.03,9.74c-0.09,0.29-0.38,0.8-0.47,0.78c-0.54-0.13-0.42-0.66-0.53-1.08c-2.04-8.2-3.92-16.46-7.39-24.22
			c-0.35-0.78-0.74-1.54-0.59-2.36c0.7-3.67-1.68-6.28-3-9.29c-1.61-3.68-3.14-7.39-5.09-10.9c-2.43-4.36-4.84-8.78-6.86-13.28
			c-1.58-3.51-3.85-6.56-5.72-9.79c-1.83-3.15-3.69-6.34-5.56-9.51c-0.93-1.57-2.68-2.63-3.79-4.12c-2.02-2.71-3.73-5.67-6.1-8.11
			c-1.76-1.81-1.77-5.47-5.49-5.2c-1.45-2.89-4.56-4.42-6.1-7.13c-1.84-3.24-4.73-5.49-7.07-8.22c-2.92-3.42-6.76-6.09-9.84-9.45
			c-6.81-7.43-14.52-13.92-22.45-20.02c-8.54-6.56-17.86-12.1-26.83-18.08c-6.33-1.49-11.18-5.86-16.85-8.63
			c-4.39-2.15-8.8-4.27-13.13-6.54c-1.61-0.85-3.33-1.33-4.98-2.03c-0.53-0.22-1.1-0.77-0.97-1.58c0.15-0.9,0.86-0.85,1.5-0.9
			C203.59,83.21,203.92,83.23,204.8,83.23z"/>
		<path class="st1" d="M120.22,70.17c11.9-0.09,23.48,1.72,35.01,4.75c11.24,2.96,22.02,7.09,32.91,11.01
			c5.99,2.15,11.84,4.7,17.5,7.48c10.11,4.97,20.17,10.1,29.85,15.95c7.74,4.67,15.24,9.73,22.41,15.14
			c6.55,4.94,13.32,9.69,19.23,15.53c5.36,5.29,11.21,10.08,16.36,15.6c8.55,9.18,16.65,18.74,23.91,28.98
			c5.51,7.76,10.8,15.68,15.2,24.13c3.17,6.09,6.19,12.25,9.11,18.48c4.33,9.22,7.44,18.85,10.57,28.48
			c0.65,2.01,0.95,4.14,1.24,6.24c0.37,2.73-0.28,3.43-2.88,4.21c-2.56,0.76-5.14,0.95-7.79,1.08c-4.13,0.19-7.94,1.8-11.79,3.13
			c-3.7,1.28-7.22,3.22-11.33,2.82c-1.3-0.13-3.24,0.52-3.77-0.56c-1.05-2.16-3.76-2.76-4.3-5.22c-0.66-3.03-1.33-6.05-2.11-9.05
			c-1.6-6.16-2.74-12.44-4.99-18.42c-2.76-7.34-4.71-15.09-8.35-21.95c-4.6-8.65-9.17-17.36-14.47-25.68
			c-5.2-8.18-11-15.89-17.16-23.25c-5.56-6.64-11.22-13.28-18.13-18.76c-4.17-3.3-7.74-7.4-11.99-10.69
			c-7.91-6.14-15.65-12.56-24.5-17.3c-3.03-1.62-5.96-3.08-8.5-5.45c-1.22-1.14-3.77-0.37-4.96-1.76c-1.92-2.22-4.58-3.06-6.98-4.36
			c-2.77-1.51-5.82-2.36-8.56-4.13c-2.82-1.82-6.24-2.85-9.52-3.82c-3.15-0.93-6.13-2.28-9.24-3.23c-3.12-0.95-6.45-1.29-9.46-2.47
			c-6.46-2.53-13.33-3.15-19.99-4.65c-2.99-0.67-6.18-0.61-9.28-1.1c-9.03-1.41-18.17-1.33-27.28-1.05
			c-9.68,0.31-19.19,1.83-28.47,4.79c-1.77,0.57-2.84,2.39-4.86,2.2c-0.65-0.06-1.41,0.18-1.83-0.41c-0.11-0.16,0.45-0.79,0.7-1.21
			c2.79-4.58,7.01-7.72,11.03-11.09c6.8-5.7,14.74-8.84,23.12-11.47C103.87,70.55,111.98,70.18,120.22,70.17z"/>
		<path class="st3" d="M352.43,370.82c-8.64,0.5-17.23-0.98-25.87-0.76c-3.18,0.08-6.01-1.7-9.02-2.58
			c-4.74-1.39-9.36-3.26-14.18-4.26c-4.38-0.9-8.95-0.38-13.41,0.19c-4.7,0.6-9.29,1.76-14.14,1.63c-4.94-0.13-9.9,0.71-14.86,0.99
			c-3.42,0.19-3.6,0.15-4.73-3c-3.73-10.4-7.1-20.88-8.92-31.87c-1.25-7.53-1.86-15.1-2.42-22.66c-0.4-5.41,0.2-10.95,0.9-16.36
			c0.84-6.54,1.97-13.06,3.75-19.43c1.61-5.73,3.73-11.28,6.01-16.76c0.33-0.79,0.74-1.54,1.67-1.53c0.12,0,0.3,1.2,0.34,1.85
			c0.98,13,4.14,25.41,10.2,37c4.83,9.24,11.07,17.36,20.25,22.65c6.15,3.54,12.56,6.47,19.79,7.49c4.14,0.58,8.24,0.67,12.37,0.9
			c6.26,0.34,11.2-2.5,15.75-6.22c3.46-2.83,5.96-6.52,8.49-10.21c3.98-5.8,7.83-11.67,10.93-18c1.96-4,4-7.96,5.3-12.27
			c0.59-1.97,1.87-3.73,2.84-5.59c0.69,0.03,1.39,0.06,2.08,0.08c-0.17,1.97-1.25,3.82-0.8,5.88c0,0.42-0.01,0.84-0.01,1.27
			c0.47,2.61,0.78,5.22,0.69,7.88c-0.25,7.97,1,15.87,1.05,23.82c0.06,8.97,0.3,17.96-0.21,26.9c-0.41,7.12-0.59,14.23-0.89,21.34
			c-0.13,2.96-0.58,5.91-1.06,8.83c-0.38,2.32-1.19,2.89-3.69,2.91c-2.32,0.01-4.65-0.07-6.97-0.12
			C353.25,370.04,352.84,370.03,352.43,370.82z"/>
		<path class="st1" d="M238.14,368.02c-3.87,1.05-5.77-1.09-7.32-4.23c-2.31-4.69-5.06-9.17-7.25-13.91
			c-4.52-9.79-8.81-19.66-11.21-30.29c-0.89-3.95-2.1-7.85-2.99-11.83c-0.89-4.01-1.49-8.05-1.8-12.13
			c-0.35-4.6-1.12-9.14-1.04-13.8c0.18-10.56,0.78-21.14,3.29-31.33c2.4-9.77,5.45-19.41,10.02-28.58
			c2.61-5.23,5.3-10.42,8.13-15.51c3.59-6.47,8.08-12.37,12.83-18.04c2.94-3.51,5.91-6.98,8.85-10.49c0.35-0.42,0.77-0.75,1.23-0.55
			c0.73,0.33,0.55,0.95,0.4,1.64c-1.2,5.6-2.88,11.08-2.8,16.94c0.04,2.73-0.85,5.47-0.81,8.31c0.11,7.47,1.79,14.62,4.36,21.56
			c0.97,2.61,2.93,4.62,5.02,6.49c3.05,2.73,3.46,1.87,0.93,5.97c-4.85,7.84-8.63,16.15-11.76,24.79
			c-2.23,6.14-3.88,12.46-5.33,18.8c-0.72,3.17-0.58,6.51-1.1,9.79c-0.67,4.2-0.16,8.53-0.98,12.81c-0.45,2.32-0.54,4.9,0.55,7.35
			c0.5,1.12,0.18,2.62,0.21,3.95c0.22,10.05,2.06,19.83,4.59,29.54c1.69,6.49,3.73,12.83,6.1,19.09c0.8,2.12,0.37,2.86-1.84,2.71
			C244.9,366.81,241.66,368.81,238.14,368.02z"/>
		<path class="st2" d="M317.33,318.16c-11.71,0.48-21.6-4.41-30.86-10.79c-3.14-2.17-5.01-5.83-8.16-8.22
			c-1.12-0.85-0.9-3.6-2.01-4.26c-2.12-1.25-2.53-3.28-3.52-5.07c-4.02-7.31-6.39-15.17-8.31-23.26c-0.78-3.3-0.22-6.65-1.02-9.76
			c-1.02-3.96-0.66-7.87-0.84-11.8c-0.02-0.33-0.02-0.67,0-1c0.21-5.29,4.38-8,8.78-5.26c2.69,1.67,5.57,2.7,8.33,4.08
			c8.75,4.4,16.46,10.33,22.99,17.56c1.78,1.97,2.21,5.31,2.86,8.11c0.93,4.06,3.86,6.65,6.66,9.18c1.26,1.14,3.67,1.21,5.59,1.39
			c5.66,0.53,11.14-0.21,16.27-2.85c3.69-1.9,7.79-2.45,11.78-2.99c2.75-0.37,5.39-1.65,8.25-1.19c1.33,0.21,1.23-1.37,2.1-1.74
			c0.15-0.06,0.39-0.13,0.48-0.05c0.19,0.16,0.5,0.47,0.45,0.6c-1.37,3.48-2.57,7.05-4.24,10.38c-2.85,5.68-5.56,11.44-9.16,16.75
			c-1.75,2.59-3.07,5.45-5.19,7.87c-1.21,1.38-2.9,2.53-3.19,4.65c-0.07,0.53-0.75,1.14-1.3,1.42c-1.91,0.96-3.3,2.55-4.95,3.8
			c-2.05,1.55-4.45,2.79-7.3,2.49C320.34,318.03,318.83,318.16,317.33,318.16z"/>
		<path class="st3" d="M253.71,204.8c0.32-10.29,1.81-19.72,4.16-29.03c0.16-0.64,0.43-1.26,0.71-1.86c0.5-1.07,1.27-0.96,1.9-0.23
			c1.61,1.88,3.22,3.77,4.68,5.78c1.02,1.4,0.42,2.81-0.44,4.15c-2.07,3.2-4,6.53-4.97,10.21c-1.08,4.08-2.14,8.12-1.51,12.57
			c1.18,8.24,6.2,12.85,13.38,15.68c5.33,2.1,10.95,2.27,16.62,2.01c3.91-0.18,3.83-0.04,5.31,3.56c2.78,6.71,5.06,13.6,7.36,20.48
			c0.21,0.62,0.64,1.29-0.12,1.68c-0.28,0.15-0.98-0.16-1.3-0.46c-3.57-3.25-7.68-5.71-11.75-8.25c-6.77-4.22-14.17-7.07-21.55-9.92
			c-3.62-1.4-6.08-3.76-8.06-6.97C254.32,217.99,254.22,211.03,253.71,204.8z"/>
		<path class="st1" d="M282.41,218.15c-3.77,0.4-7.36-1.02-11.07-2.53c-7.28-2.95-8.65-9.28-7.53-15.38
			c0.63-3.44,1.93-6.91,3.74-10.07c0.51-0.89,1.11-1.63,1.81-2.32c0.9-0.89,1.42-0.72,2.27,0.35c3.09,3.86,5.31,8.26,8.08,12.3
			c3.37,4.91,5.55,10.41,8.34,15.61c0.8,1.49,0.44,1.94-1.37,2.02C285.36,218.2,284.03,218.15,282.41,218.15z M268.55,203.71
			c-0.04,5,1.34,7.03,5.69,8.31c1.39,0.41,2.86,0.5,4.3,0.94c2.09,0.63,3.77-1.28,2.88-3.2c-2.22-4.78-4.92-9.3-8.19-13.45
			c-1.22-1.55-3.11-1.28-3.35,0.51C269.55,199.26,268.06,201.48,268.55,203.71z"/>
		<path class="st3" d="M57.92,116.23c-1.4-0.07-2.08-0.03-2.72-0.14c-2.43-0.44-3.34-2.3-2.05-4.35c0.61-0.96,1.46-1.8,2.31-2.58
			c5.33-4.88,11.67-7.91,18.55-9.89c0.39-0.11,0.9,0.22,1.36,0.35c-0.13,0.29-0.21,0.64-0.41,0.87c-3.18,3.78-5.48,8.25-9.02,11.75
			C63.53,114.62,60.72,116.26,57.92,116.23z"/>
		<path class="st1" d="M365.55,272.11c-0.69-0.03-1.39-0.06-2.08-0.08c-0.27-1.25,0.76-2.07,1.05-3.13c0.06-0.21,0.43-0.34,0.66-0.5
			c0.14,0.28,0.4,0.55,0.41,0.84C365.62,270.19,365.57,271.15,365.55,272.11z"/>
		<path class="st1" d="M352.43,370.82c0.42-0.79,0.83-0.79,1.23,0.01C353.25,370.83,352.84,370.82,352.43,370.82z"/>
		<path class="st1" d="M364.74,279.26c0-0.42,0.01-0.84,0.01-1.27C365.54,278.42,365.5,278.84,364.74,279.26z"/>
		<path class="st0" d="M268.55,203.71c-0.49-2.22,1-4.44,1.33-6.89c0.24-1.79,2.13-2.06,3.35-0.51c3.27,4.14,5.97,8.67,8.19,13.45
			c0.89,1.91-0.79,3.83-2.88,3.2c-1.44-0.43-2.91-0.52-4.3-0.94C269.89,210.74,268.51,208.71,268.55,203.71z"/>
	</g>
</g>
</svg>
