<svg xmlns="http://www.w3.org/2000/svg" xmlns:xlink="http://www.w3.org/1999/xlink" >
    <!-- <svg xmlns="http://www.w3.org/2000/svg" xmlns:xlink="http://www.w3.org/1999/xlink" height="72.793" viewBox="0 0 auto 72.793"> -->
    <defs>
      <clipPath id="clip-path">
        <path id="Path_459" data-name="Path 459" d="M3277.365,1708.616a10.007,10.007,0,1,0,2.41.3,10,10,0,0,0-2.41-.3h0" transform="translate(-3267.374 -1708.616)" fill="none"/>
      </clipPath>
      <radialGradient id="radial-gradient" cx="0" cy="0" r="0" gradientUnits="objectBoundingBox">
        <stop offset="0" stop-color="#fff"/>
        <stop offset="0.781" stop-color="#fff"/>
        <stop offset="0.815" stop-color="#f9f8f7"/>
        <stop offset="0.865" stop-color="#e9e5e3"/>
        <stop offset="0.927" stop-color="#cec7c1"/>
        <stop offset="0.996" stop-color="#aa9d93"/>
        <stop offset="1" stop-color="#a89b90"/>
      </radialGradient>
    </defs>
    <!-- <g id="Group_200" data-name="Group 200" transform="translate(1.024 -918.328)"> -->
    <g id="Group_200" data-name="Group 200" transform="translate(1.024 -918.328)">
        <g id="Group_212" data-name="Group 212" transform="translate(138.976 943.328)">
        <g id="Group_205" data-name="Group 205" transform="translate(81.892 7.003)">
            <g id="Group_200-2" data-name="Group 200">
            <path id="Path_539" data-name="Path 539" d="M301.2,999.4a5.791,5.791,0,0,0-3.046-1.033,5.775,5.775,0,0,0-1.743-1.905,5.6,5.6,0,0,0,1.648-1.6,5.889,5.889,0,0,0,1.216-.614,5.66,5.66,0,0,0,2.493-5.456,12.853,12.853,0,0,0-1.867-5.664,8.869,8.869,0,0,0-2.64-2.6,18.543,18.543,0,0,0,6.387-14.218c0-10.7-8.2-18.768-19.065-18.768a19.323,19.323,0,0,0-13.486,5.28,6.362,6.362,0,0,0-6.123-4.771H257.36a6.3,6.3,0,0,0-4.993,2.474,2.058,2.058,0,0,0-.138-.174l-.138-.157a6.308,6.308,0,0,0-4.725-2.143h-6.4a6.264,6.264,0,0,0-4.063,1.5,6.3,6.3,0,0,0-5.274-.816,7.176,7.176,0,0,1-4.071,0,6.3,6.3,0,0,0-5.574,1.031,6.452,6.452,0,0,0-2.232,3.2,18.037,18.037,0,0,0-12.518-4.909H194.691a6.388,6.388,0,0,0-6.335,6.423c0,.048,0,.095,0,.141l.239,3.967a125.435,125.435,0,0,1,0,15.453l-.232,3.758,0,.071-.005.182,0,.071a6.466,6.466,0,0,0,1.075,3.566,6.38,6.38,0,0,0-1.075,3.544l0,.078.007.2,0,.079a154.378,154.378,0,0,1,.108,19.171l-.111,1.954,0,.066-.005.166,0,.065a6.291,6.291,0,0,0,6.239,6.327h7.012a6.275,6.275,0,0,0,6.131-5.144,6.4,6.4,0,0,0,.833,2.156,6.184,6.184,0,0,0,5.3,2.988h7.654a6.182,6.182,0,0,0,5.433-3.217c.265-.011.531-.011.8,0a6.184,6.184,0,0,0,5.433,3.216h7.652a6.127,6.127,0,0,0,2.116-.378,6.07,6.07,0,0,0,2.1.378h7.317a6.006,6.006,0,0,0,3.748-1.292,6.207,6.207,0,0,0,3.775,1.292h8.848a6.217,6.217,0,0,0,2.575-.562,9.132,9.132,0,0,0,3.3.562h4.816a7.553,7.553,0,0,0,5.4-1.853,11.291,11.291,0,0,0,6.314,1.853c.425,0,.872-.026,1.267-.048l.055,0c.163-.008.315-.018.443-.021,5.214-.162,7.788-1.917,10.2-6.952A5.522,5.522,0,0,0,301.2,999.4Z" transform="translate(-188.356 -947.551)" fill="#beb281"/>
            </g>
            <path id="Path_540" data-name="Path 540" d="M299.021,1000.371a3.493,3.493,0,0,0-2.531-.59q-.4.057-.781.095a3.419,3.419,0,0,0-3.085-3.032l-1.561-.159-.025-.157a3.3,3.3,0,0,0-.086-.388,3.446,3.446,0,0,0,.381-.277,3.4,3.4,0,0,0,1.1-1.713,3.439,3.439,0,0,0,3.221-2.166,3.552,3.552,0,0,0,1.481-.554,3.379,3.379,0,0,0,1.5-3.254,10.564,10.564,0,0,0-1.5-4.68,7.058,7.058,0,0,0-5.493-3.063c-.255-.02-.5-.027-.751-.028a16.07,16.07,0,0,0,9.607-15c0-9.395-7.226-16.479-16.808-16.479-7.456,0-13.486,4.277-15.806,10.592q.087-2.776.257-5.542l.02-.4a4.114,4.114,0,0,0-4.08-4.138h-7.612a4.113,4.113,0,0,0-4.08,4.138v1.395q-.7-.876-1.315-1.821l-1.42-2.174-.138-.156a4.058,4.058,0,0,0-3.042-1.381h-6.4a4.093,4.093,0,0,0-3.869,2.834,4.128,4.128,0,0,0-1.249-1.58,4.056,4.056,0,0,0-3.589-.663,9.416,9.416,0,0,1-5.333,0,4.058,4.058,0,0,0-3.589.663,4.182,4.182,0,0,0-1.63,3.308l.327,5.6a15.412,15.412,0,0,0-14.8-10.158H193.794a4.114,4.114,0,0,0-4.08,4.138l.239,3.964a127.812,127.812,0,0,1,0,15.74l-.234,3.758,0,.181a4.145,4.145,0,0,0,2.048,3.582,4.051,4.051,0,0,0-2.048,3.527l.007.2a156.764,156.764,0,0,1,.109,19.46l-.111,1.953,0,.168a4.015,4.015,0,0,0,3.983,4.038h7.012a4.015,4.015,0,0,0,3.983-4.038v-2.347h.244a11.747,11.747,0,0,0,5.488-1.325l-.96,1.763-.06.116a4.06,4.06,0,0,0,.184,3.922,3.95,3.95,0,0,0,3.385,1.909h7.654a3.955,3.955,0,0,0,3.569-2.245l.4-.818a10.792,10.792,0,0,1,3.723,0l.4.818a3.953,3.953,0,0,0,3.569,2.245h7.652a3.923,3.923,0,0,0,2.118-.624,3.9,3.9,0,0,0,2.1.624h7.317a3.733,3.733,0,0,0,3.69-2.965l.008.022.4,1,.211.29a3.979,3.979,0,0,0,3.211,1.649h8.848a3.931,3.931,0,0,0,2.483-.877,5.9,5.9,0,0,0,3.395.877h4.818c3.151,0,4.39-1.494,4.872-2.763,1.663,1.3,3.556,2.763,6.839,2.763.358,0,.756-.021,1.143-.043.2-.011.393-.023.552-.028,4.352-.136,6.2-1.408,8.239-5.672A3.194,3.194,0,0,0,299.021,1000.371Z" transform="translate(-187.462 -946.645)" fill="#0e1b1b"/>
            <g id="Group_204" data-name="Group 204" transform="translate(5.11 5.177)">
            <g id="Group_202" data-name="Group 202">
                <path id="Path_541" data-name="Path 541" d="M210.188,952.477l.386,6.547a91.07,91.07,0,0,1-.066,11.73l-.32,4.542a1.225,1.225,0,0,0,1.564,1.189h0a12.253,12.253,0,0,1,6.929,0h0a1.226,1.226,0,0,0,1.566-1.189l-.32-4.542a91.07,91.07,0,0,1-.066-11.73l.386-6.547a1.227,1.227,0,0,0-1.566-1.191h0a12.225,12.225,0,0,1-6.929,0h0A1.227,1.227,0,0,0,210.188,952.477Z" transform="translate(-179.091 -950.302)" fill="#beb281"/>
                <path id="Path_542" data-name="Path 542" d="M235.734,952.221v8.091h0a26.559,26.559,0,0,1-6.554-6.919l-1.305-2a1.216,1.216,0,0,0-.912-.415h-6.4a1.232,1.232,0,0,0-1.222,1.241l0,.078a187.989,187.989,0,0,1,.017,23.219l-.022.345a1.232,1.232,0,0,0,1.222,1.24h7.612a1.232,1.232,0,0,0,1.222-1.24v-8.091l0,0a26.557,26.557,0,0,1,6.541,6.937l1.284,1.975a1.211,1.211,0,0,0,.912.416h6.43a1.232,1.232,0,0,0,1.222-1.24l-.012-.2a187.969,187.969,0,0,1,0-23.218l.013-.225a1.232,1.232,0,0,0-1.222-1.241h-7.612A1.232,1.232,0,0,0,235.734,952.221Z" transform="translate(-173.065 -950.471)" fill="#beb281"/>
                <g id="Group_201" data-name="Group 201" transform="translate(77.136)">
                <path id="Path_543" data-name="Path 543" d="M251.926,950.673c-7.969,0-13.977,5.841-13.977,13.584s6.008,13.582,13.977,13.582,13.95-5.839,13.95-13.582S259.88,950.673,251.926,950.673Zm6.3,7.934a6.523,6.523,0,0,1,1.365,3.207,5.373,5.373,0,0,0-2.4-.464c-.214,0-.426.011-.64.022l-.138.007C257.1,960.341,257.863,959.207,258.223,958.607Zm-6.71-4.748a6.03,6.03,0,0,1,1.69,3.224,3.006,3.006,0,0,0-1.713-.234,4.337,4.337,0,0,0-1.439.466C250.037,955.988,250.642,955.111,251.513,953.859Zm-6.3,4.748c.41.788,1.012,1.615,1.43,2.476a5.118,5.118,0,0,0-2.4,1.063A7.425,7.425,0,0,1,245.218,958.607Zm14.335,6.149a5.109,5.109,0,0,1-1.3,2.537,3.187,3.187,0,0,0-1.1,2.191,1.427,1.427,0,0,1-.156.431,3.807,3.807,0,0,1-1.494,1.761,7.049,7.049,0,0,0-1.552,1.433,2.382,2.382,0,0,1-2,1.033,3.482,3.482,0,0,1-.7-.075,2.037,2.037,0,0,1-1.6-1.211,2.84,2.84,0,0,0-.678-.756,2.792,2.792,0,0,0-.622-.4,3.835,3.835,0,0,1-2.066-3.219,1.175,1.175,0,0,0-.27-.566c-.285-.335-.643-.609-.91-.955a3.133,3.133,0,0,1-.7-3.121,2.089,2.089,0,0,1,.453-.735,2.362,2.362,0,0,1,1.441-.71,2.691,2.691,0,0,1,.3-.02,2.037,2.037,0,0,1,1.456.551,2.834,2.834,0,0,1,.907,1.778,5.963,5.963,0,0,0,.139,1.7,2.843,2.843,0,0,0,.227.6.631.631,0,0,0,.413.235.176.176,0,0,0,.043-.005c.114-.03.236-.282.245-.444a9.7,9.7,0,0,0-.471-3.884,8.591,8.591,0,0,1-.439-1.99,2.386,2.386,0,0,1,.992-2.35,3.516,3.516,0,0,1,1.469-.541,2.636,2.636,0,0,1,.375-.028,2.343,2.343,0,0,1,1.3.393,3.335,3.335,0,0,1,1.289,1.8,3.009,3.009,0,0,1-.254,2.328,4.628,4.628,0,0,0-.5,2.161c.008.822-.007,1.645,0,2.468a6.411,6.411,0,0,0,.085.67,3.912,3.912,0,0,0,1.051-2.7,3.152,3.152,0,0,1,.922-2.267.91.91,0,0,1,.635-.285l.025,0c.118,0,.234,0,.352,0,.071,0,.144,0,.216,0,.186,0,.37,0,.556,0,.093,0,.187,0,.282,0a1.647,1.647,0,0,1,1.2.473A1.98,1.98,0,0,1,259.553,964.756Z" transform="translate(-237.949 -950.673)" fill="#beb281"/>
                </g>
                <path id="Path_544" data-name="Path 544" d="M205.2,950.98H192.659a1.232,1.232,0,0,0-1.222,1.241l.234,3.783a130.4,130.4,0,0,1,0,16.1l-.232,3.758a1.232,1.232,0,0,0,1.222,1.24H205.2c7.5,0,12.947-5.488,12.947-13.048A12.726,12.726,0,0,0,205.2,950.98Zm-.133,16.247h-3.033a.548.548,0,0,1-.544-.552v-5.481a.548.548,0,0,1,.544-.552h3.033c2.658,0,2.864,2.511,2.864,3.279C207.935,965.519,207.184,967.227,205.071,967.227Z" transform="translate(-191.437 -950.471)" fill="#beb281"/>
            </g>
            <g id="Group_203" data-name="Group 203" transform="translate(0 31.113)">
                <path id="Path_545" data-name="Path 545" d="M205.946,969.9a8.838,8.838,0,0,0-3.39-.2l-.342.04a35.761,35.761,0,0,1-8.831-.053l-.821-.108a1.135,1.135,0,0,0-1.126,1.143h0a159.413,159.413,0,0,1,.111,19.825l-.111,1.955a1.134,1.134,0,0,0,1.126,1.141h7.012A1.134,1.134,0,0,0,200.7,992.5v-4.1a1.134,1.134,0,0,1,1.126-1.141H203.8a8.579,8.579,0,0,0,8.717-8.68A8.907,8.907,0,0,0,205.946,969.9Zm-3.313,10.536h-1.65a.506.506,0,0,1-.5-.509v-2.945a.507.507,0,0,1,.5-.509h1.65a1.758,1.758,0,0,1,1.725,1.974C204.358,979.411,203.9,980.44,202.633,980.44Z" transform="translate(-191.437 -969.337)" fill="#beb281"/>
                <path id="Path_546" data-name="Path 546" d="M247.543,991.8l-1.312-1.146a14.805,14.805,0,0,1-4.451-6.945,8.468,8.468,0,0,0,2.109-5.662,8.309,8.309,0,0,0-6.919-8.3,9.174,9.174,0,0,0-2.77-.05l-.31.036a39.944,39.944,0,0,1-8.957.051l-1.9-.2a1.135,1.135,0,0,0-1.126,1.143,176.647,176.647,0,0,1,0,21.775,1.059,1.059,0,0,0,1.058,1.146h7.317a.883.883,0,0,0,.887-1.149,13.128,13.128,0,0,1-.159-5.172c.046-.269.1-.536.161-.8h.338c1.086,0,2.151,1.5,2.831,2.284a13.087,13.087,0,0,1,2.287,3.7l.27.672a1.117,1.117,0,0,0,.907.466h8.848A1.143,1.143,0,0,0,247.543,991.8Zm-14.131-11.587h-2.325a.505.505,0,0,1-.5-.509v-2.945a.5.5,0,0,1,.5-.509h2.325a1.758,1.758,0,0,1,1.723,1.974C235.135,979.189,234.683,980.217,233.412,980.217Z" transform="translate(-171.376 -969.337)" fill="#beb281"/>
                <path id="Path_547" data-name="Path 547" d="M232.164,992.094l-.892-1.63q-5.314-9.7-9.65-19.9l-.212-.5a1.124,1.124,0,0,0-1.01-.635l-1.287.643a3.208,3.208,0,0,1-2.882,0l-1.289-.643a1.126,1.126,0,0,0-1.01.635h0q-4.333,10.254-9.665,20.03l-1.088,2a1.141,1.141,0,0,0,1.008,1.648h7.654a1.122,1.122,0,0,0,1.008-.635l.653-1.335a1.936,1.936,0,0,1,1.146-.914,13.486,13.486,0,0,1,5.954-.021l.093.021a1.123,1.123,0,0,1,1.008.634l.789,1.615a1.126,1.126,0,0,0,1.01.635h7.652A1.141,1.141,0,0,0,232.164,992.094Zm-12.878-8.125h-3.231a.838.838,0,0,1-.74-1.214l1.615-3.269a.823.823,0,0,1,1.479,0l1.615,3.269A.838.838,0,0,1,219.286,983.97Z" transform="translate(-183.785 -969.434)" fill="#beb281"/>
                <path id="Path_548" data-name="Path 548" d="M264.965,989.177a.659.659,0,0,0-.483-.109,17.067,17.067,0,0,1-2.964.191,2.892,2.892,0,0,1-1.254-.335l.172-2.232a.547.547,0,0,0-.531-.542l-2.138-.217-.643-.066-.967-.1-.373-2.353a.591.591,0,0,0-.615-.443h-.017c-.061,0-.121.01-.181.016a2.663,2.663,0,0,1-1.637-.139c-.385-.162-1.264-.942-.731-1.446.226-.212.519-.386.765-.579.222-.172.433-.353.647-.537a.931.931,0,0,1,.662-.219l1.942.126a.648.648,0,0,0,.468-.148.469.469,0,0,0,.177-.395l-.143-2.013.216,0,2.665.035a.6.6,0,0,0,.579-.375,4.921,4.921,0,0,0,.2-2.1l-.031-.272,1.809.574a.7.7,0,0,0,.582-.076.48.48,0,0,0,.227-.461,7.926,7.926,0,0,0-1.042-3.434,4.215,4.215,0,0,0-3.345-1.789c-3.478-.277-6.052,2.073-8.347,4.4-.483.489-1,.978-1.476,1.4-.363.327-1.036.957-1,.916.065-1.587.158-3.614.216-4.191.033-.333.053-1.174.053-1.327,0-.8-.72-1.227-1.413-1.353a6.814,6.814,0,0,0-2.624.313,3.651,3.651,0,0,1-.794.095,2.942,2.942,0,0,1-.748-.126,8.044,8.044,0,0,0-1.464-.3,3.837,3.837,0,0,0-1.468.166,1.219,1.219,0,0,0-.944,1.2c0,.138.022,1.07.058,1.594.085,1.206.26,3.7.31,7l.007.788c0,.315.007.632.007.962s0,.667-.007.992l0,.532c-.043,3.461-.226,6.589-.312,7.889-.036.532-.058,1.343-.058,1.483,0,1.143.954,1.486,2.318,1.486h4.818c1.365,0,2.318-.343,2.318-1.486,0-.2-.045-1.292-.091-1.92s-.114-1.746-.168-2.811c.277.312.541.58.833.879a17.634,17.634,0,0,0,1.605,1.528c.4.323.806.647,1.222.958,2.005,1.5,3.244,2.853,5.992,2.853.463,0,1.156-.056,1.607-.07,3.173-.1,4.144-.672,5.755-4.038C265.248,989.426,265.1,989.272,264.965,989.177Z" transform="translate(-160.139 -969.359)" fill="#beb281"/>
            </g>
            </g>
        </g>
        <g id="Group_211" data-name="Group 211">
            <path id="Path_549" data-name="Path 549" d="M143.966,959.633c1.861-.2,3.491-1.386,4.843-3.514h0a4.949,4.949,0,0,1,1.06-1.237,4.516,4.516,0,0,1,1.813-.9,36.951,36.951,0,0,1,6.6.323,33.682,33.682,0,0,1,3.763.713l1.368,10.382-2.7,11.377a2.946,2.946,0,0,0-.056.3,16.912,16.912,0,0,0-.091,3.245l0,.036,1.511,17.33a8.174,8.174,0,0,0-.915,4.675l1.01,10.428a2.736,2.736,0,0,0,1.007,1.869,2.661,2.661,0,0,0,2.027.56l9.732-1.353,5.655,1.546a2.64,2.64,0,0,0,.949.081l14.116-1.352,5.081,1.567a2.618,2.618,0,0,0,.738.116l8.6.136.224,0,.06,0a2.7,2.7,0,0,0,2.658-2.361l.43-3.275c.01-.078.017-.156.022-.242l.3-7.151c.041-.96.038-1.955-.007-2.958l-.371-7.924,3.153-24.36,0-.027.01-.08a2.783,2.783,0,0,0-.022-.769L214.218,953a5.031,5.031,0,0,0-4-4.355l-4.285-.62a4.065,4.065,0,0,0-2.98-1.979L191.073,944a2.342,2.342,0,0,0-.26-.031,8.233,8.233,0,0,0-2.4.181,2.588,2.588,0,0,0-.436.138l-5.6,2.332a2.358,2.358,0,0,1-.657,0l-12.251-1.667a4.584,4.584,0,0,0-1.94.143c-8.012-2.441-14.71-2.353-19.917.264a16.691,16.691,0,0,0-8.569,10.448c-.01.05-.02.1-.027.153a2.532,2.532,0,0,0-.032.292c0,.037,0,.075,0,.111a2.45,2.45,0,0,0,.017.284c0,.048.013.106.022.153a2.451,2.451,0,0,0,.113.42l.023.062a2.3,2.3,0,0,0,.169.345l.017.03a2.45,2.45,0,0,0,.358.461,5.489,5.489,0,0,0,3.731,1.546A5.272,5.272,0,0,0,143.966,959.633Z" transform="translate(-138.976 -943.328)" fill="#beb281"/>
            <g id="Group_210" data-name="Group 210" transform="translate(1.826 1.846)">
            <g id="Group_206" data-name="Group 206" transform="translate(23.259 2.351)">
                <path id="Path_550" data-name="Path 550" d="M173.4,969.09c.043.038.083.076.124.115l-.045-.163Z" transform="translate(-141.398 -930.595)" fill="#902f18"/>
                <path id="Path_551" data-name="Path 551" d="M197.254,951.934c-.126-.75-.551-1.342-1.008-1.408l-5.839-.846a.859.859,0,0,1-.726-.751c-.07-.59-.378-.974-.622-.992a.71.71,0,0,1-.081-.01l-11.932-2.058a4.757,4.757,0,0,0-1.279.091l-5.783,2.406a.966.966,0,0,1-.139.045,5.855,5.855,0,0,1-2.08.091l-8.324-1.133q1.107.47,2.245.994c15.148,6.993,23.438,17.052,27.725,24.259a45.09,45.09,0,0,1,5.746,14.153,1.567,1.567,0,0,1-.226,1.283c-.443.637-1.37,1.02-2.839,1.169a9.757,9.757,0,0,0-3.038.846,5.5,5.5,0,0,1-2.249.559,3.115,3.115,0,0,1-1.6-.416,4.488,4.488,0,0,1-1.869-3.119c-.267-.469-2.091-3.289-8.328-5.71-.177.242-.435.614-.74,1.106a25.36,25.36,0,0,0,.4,4.957,16.95,16.95,0,0,0,3.849,8.544,10.949,10.949,0,0,0,8.315,3.32h0c4.567,0,8.972-12.43,10.828-19.1l1.889-14.589Z" transform="translate(-150.587 -945.859)" fill="#902f18"/>
                <path id="Path_552" data-name="Path 552" d="M181.323,972.386l0-.053-.028.066Z" transform="translate(-136.196 -928.428)" fill="#902f18"/>
                <path id="Path_553" data-name="Path 553" d="M171.743,959.162a48.347,48.347,0,0,0-16.211-9.348l1.494,11.338a.885.885,0,0,1-.017.317L154.2,973.3a13.166,13.166,0,0,0-.066,2.483l1.59,18.246a.866.866,0,0,1-.154.575l-.179.259a4.352,4.352,0,0,0-.667,2.872l.924,9.534,9.388-1.307a.859.859,0,0,1,.338.021l4.481,1.226a39.044,39.044,0,0,1-5.388-17.256,32.13,32.13,0,0,1,2.683-14.581,36.766,36.766,0,0,1,8.67-12.232A49.638,49.638,0,0,0,171.743,959.162Z" transform="translate(-154.102 -943.255)" fill="#902f18"/>
                <path id="Path_554" data-name="Path 554" d="M167.572,969.614a1.284,1.284,0,0,1,.206.047q-.017-.216-.03-.418C167.69,969.364,167.63,969.488,167.572,969.614Z" transform="translate(-145.233 -930.463)" fill="#902f18"/>
            </g>
            <g id="Group_207" data-name="Group 207" transform="translate(1.37 7.474)">
                <path id="Path_555" data-name="Path 555" d="M192.01,974.767a.786.786,0,0,1,0-.153l.418-3.231c-.3.829-.617,1.678-.957,2.524-.041.106-.085.207-.126.312l0,.053-.025.013c-2.907,7.113-5.882,10.722-8.848,10.722h0a12.116,12.116,0,0,1-9.2-3.707c-3.33-3.534-4.259-8.7-4.508-11.788a1.283,1.283,0,0,0-.206-.046,26.47,26.47,0,0,0-1.466,3.992c-1.267,4.532-1.969,11.77,1.711,20.73l9.206-.882a.846.846,0,0,1,.328.035l5.473,1.687,7.96.126.323-2.473.3-7.115c.036-.854.035-1.74-.007-2.634Z" transform="translate(-124.331 -935.438)" fill="#beb281"/>
                <path id="Path_556" data-name="Path 556" d="M169.883,971.652a23.314,23.314,0,0,1,7.566,4.287l.08-.048a44.491,44.491,0,0,0-2.109-5.935,11.534,11.534,0,0,1-1.673.126c-1.693,0-3.944-.4-5.091-2.327-1.5-2.511.524-5.935,1.3-7.081q-.809-1.065-1.632-2.033a33.23,33.23,0,0,0-1,5.443C167.067,967,167.3,970.687,169.883,971.652Z" transform="translate(-123.56 -942.567)" fill="#beb281"/>
                <path id="Path_557" data-name="Path 557" d="M141.311,951.809a5.551,5.551,0,0,0-.408.663,2.285,2.285,0,0,0,1.478.381,3.942,3.942,0,0,0,2.594-2.114,8.188,8.188,0,0,1,1.5-1.791,12.016,12.016,0,0,0-3.108,1.166A6.792,6.792,0,0,0,141.311,951.809Z" transform="translate(-140.903 -948.948)" fill="#beb281"/>
            </g>
            <g id="Group_208" data-name="Group 208" transform="translate(2.778 1.231)">
                <path id="Path_558" data-name="Path 558" d="M172.8,972.194c-3.859-2.279-2.715-9.5-1.846-13.146a36.376,36.376,0,0,0-7.292,10.793,30.872,30.872,0,0,0-2.559,14,38.435,38.435,0,0,0,5.826,17.7l3.9-.375c-3.665-9.154-2.915-16.576-1.6-21.251A25.566,25.566,0,0,1,172.8,972.194Z" transform="translate(-129.039 -936.055)" fill="#706c41"/>
                <path id="Path_559" data-name="Path 559" d="M168.869,965.889c1.109,1.857,3.844,1.809,5.183,1.662A45.431,45.431,0,0,0,169.9,960.5C169.156,961.7,167.863,964.205,168.869,965.889Zm1.721-3.187a27.657,27.657,0,0,1,1.854,3.229.323.323,0,0,1-.277.461c-.693.022-1.965-.061-2.426-.9a3.462,3.462,0,0,1,.3-2.745A.316.316,0,0,1,170.591,962.7Z" transform="translate(-124.141 -935.098)" fill="#706c41"/>
                <path id="Path_560" data-name="Path 560" d="M205.615,987.5l-.008-.046a44.682,44.682,0,0,0-5.624-13.795c-4.2-7.042-12.319-16.871-27.156-23.722a67.5,67.5,0,0,0-6.32-2.557c-.4-.138-.8-.27-1.2-.4-.418-.133-.833-.259-1.24-.376-6.906-1.985-12.581-1.889-16.937.3a13.484,13.484,0,0,0-5.214,4.632c-.056.083-.111.166-.163.247a16.039,16.039,0,0,1,7.8-2.111c.551-.031,1.128-.048,1.736-.048a43.339,43.339,0,0,1,5.556.388,36.981,36.981,0,0,1,4.851.974c.3.079.6.164.894.25s.6.179.9.274a49.48,49.48,0,0,1,17.184,9.765,47.412,47.412,0,0,1,15.5,25.927l0,0,0,.012c0,.022.008.043.012.065a3.4,3.4,0,0,0,1.285,2.312,2.985,2.985,0,0,0,2.733-.2,10.906,10.906,0,0,1,3.416-.949c1.509-.154,1.884-.536,1.962-.65A.324.324,0,0,0,205.615,987.5Z" transform="translate(-141.752 -945.184)" fill="#706c41"/>
            </g>
            <g id="Group_209" data-name="Group 209">
                <path id="Path_561" data-name="Path 561" d="M171.752,965.575a.323.323,0,0,0,.277-.461,27.665,27.665,0,0,0-1.854-3.229.316.316,0,0,0-.554.048,3.461,3.461,0,0,0-.3,2.745C169.786,965.513,171.058,965.6,171.752,965.575Z" transform="translate(-120.946 -933.05)" fill="#0e1b1b"/>
                <path id="Path_562" data-name="Path 562" d="M214.01,966.393l-2.323-13.818a3.208,3.208,0,0,0-2.449-2.831l-5.257-.76a2.459,2.459,0,0,0-2-1.838l-11.94-2.06a.673.673,0,0,0-.083-.01,6.505,6.505,0,0,0-1.876.141,1.076,1.076,0,0,0-.141.045l-5.783,2.406a4.176,4.176,0,0,1-1.413.051l-12.256-1.668a2.86,2.86,0,0,0-1.619.25l-.023.01c-7.818-2.483-14.241-2.5-19.156-.03a14.714,14.714,0,0,0-7.6,9.2l0,.018a.76.76,0,0,0-.01.086.245.245,0,0,0,0,.035.447.447,0,0,0,.007.081l0,.025a.591.591,0,0,0,.03.106v0a.6.6,0,0,0,.048.1l0,.007a.5.5,0,0,0,.071.094l.015.021a3.719,3.719,0,0,0,2.443,1.007,3.085,3.085,0,0,0,.345-.018c1.285-.141,2.463-1.04,3.5-2.675a6.8,6.8,0,0,1,1.464-1.687,6.3,6.3,0,0,1,2.707-1.29,38.04,38.04,0,0,1,7.075.327,36.161,36.161,0,0,1,5.182,1.073l1.575,11.959-2.784,11.723a.576.576,0,0,0-.017.091,14.881,14.881,0,0,0-.081,2.884l1.564,17.947a6.112,6.112,0,0,0-.97,4.04l1.008,10.428a.87.87,0,0,0,.322.6.845.845,0,0,0,.645.177l10.1-1.4,6.012,1.642a.813.813,0,0,0,.3.026l14.475-1.386,5.425,1.673a.813.813,0,0,0,.235.036l8.612.138.224,0,.018,0a.858.858,0,0,0,.846-.753l.429-3.275c0-.026,0-.051.007-.076l.3-7.151c.04-.906.036-1.844,0-2.791l-.38-8.09,3.174-24.525.008-.075A.823.823,0,0,0,214.01,966.393Zm-4.5,33.017c.041.894.043,1.779.007,2.634l-.3,7.115-.323,2.473-7.96-.126-5.473-1.687a.844.844,0,0,0-.328-.035l-9.206.882c-3.68-8.96-2.979-16.2-1.711-20.73a26.474,26.474,0,0,1,1.466-3.992c.058-.126.118-.25.176-.371q.012.2.03.418c.249,3.093,1.177,8.254,4.508,11.788a12.116,12.116,0,0,0,9.2,3.707h0c2.965,0,5.94-3.609,8.848-10.722l.028-.066c.041-.1.085-.206.126-.312.34-.846.66-1.695.957-2.524l-.418,3.23a.789.789,0,0,0,0,.153Zm-34.9,10.113a.859.859,0,0,0-.338-.022l-9.388,1.307-.924-9.534a4.351,4.351,0,0,1,.667-2.872l.179-.259a.866.866,0,0,0,.154-.575l-1.59-18.246a13.168,13.168,0,0,1,.066-2.483l2.811-11.833a.886.886,0,0,0,.017-.317l-1.494-11.338a48.347,48.347,0,0,1,16.211,9.348,49.64,49.64,0,0,1,4.076,3.98,36.769,36.769,0,0,0-8.67,12.232,32.13,32.13,0,0,0-2.683,14.581,39.044,39.044,0,0,0,5.388,17.256ZM157.945,950.5a43.319,43.319,0,0,0-5.556-.388c-.609,0-1.186.017-1.736.048a16.039,16.039,0,0,0-7.8,2.111c.051-.081.106-.164.163-.247a13.484,13.484,0,0,1,5.214-4.632c4.357-2.189,10.032-2.285,16.937-.3.408.118.823.244,1.24.376.4.126.8.259,1.2.4a67.53,67.53,0,0,1,6.32,2.557c14.838,6.851,22.957,16.68,27.156,23.722a44.682,44.682,0,0,1,5.624,13.795l.008.046a.324.324,0,0,1-.035.3c-.078.115-.453.5-1.962.65a10.912,10.912,0,0,0-3.416.949,2.985,2.985,0,0,1-2.733.2,3.4,3.4,0,0,1-1.285-2.312c0-.021-.007-.043-.012-.065l0-.012,0,0a47.412,47.412,0,0,0-15.5-25.927A49.478,49.478,0,0,0,164.587,952q-.448-.142-.9-.274c-.3-.086-.6-.171-.894-.25A36.981,36.981,0,0,0,157.945,950.5Zm-12.426,3.207a3.943,3.943,0,0,1-2.594,2.115,2.286,2.286,0,0,1-1.478-.381,5.549,5.549,0,0,1,.408-.663,6.792,6.792,0,0,1,2.056-1.695,12.016,12.016,0,0,1,3.108-1.166A8.188,8.188,0,0,0,145.518,953.706Zm47.248,24.418c-1.338.147-4.073.2-5.183-1.662-1.007-1.683.287-4.189,1.033-5.387A45.431,45.431,0,0,1,192.766,978.125Zm-5,2.876c-2.58-.965-2.816-4.649-2.559-7.569a33.23,33.23,0,0,1,1-5.443q.821.967,1.632,2.033c-.773,1.146-2.8,4.571-1.3,7.081,1.148,1.922,3.4,2.327,5.091,2.327a11.537,11.537,0,0,0,1.673-.126,44.481,44.481,0,0,1,2.109,5.935l.045.162c-.041-.038-.081-.076-.124-.114A23.317,23.317,0,0,0,187.769,981Zm-7.023,30.161a38.435,38.435,0,0,1-5.826-17.7,30.873,30.873,0,0,1,2.559-14,36.376,36.376,0,0,1,7.292-10.793c-.869,3.642-2.013,10.868,1.846,13.146a25.566,25.566,0,0,0-3.564,7.725c-1.318,4.675-2.068,12.1,1.6,21.251Zm29.672-30.014c-1.856,6.67-6.26,19.1-10.828,19.1h0a10.949,10.949,0,0,1-8.315-3.32,16.95,16.95,0,0,1-3.849-8.544,25.359,25.359,0,0,1-.4-4.957c.305-.492.562-.864.74-1.106,6.237,2.421,8.061,5.241,8.328,5.71a4.488,4.488,0,0,0,1.869,3.12,3.115,3.115,0,0,0,1.6.416,5.5,5.5,0,0,0,2.249-.559,9.75,9.75,0,0,1,3.038-.846c1.469-.149,2.4-.532,2.839-1.169a1.567,1.567,0,0,0,.226-1.284,45.091,45.091,0,0,0-5.746-14.153c-4.287-7.207-12.577-17.266-27.725-24.259q-1.139-.525-2.245-.993l8.324,1.133a5.855,5.855,0,0,0,2.08-.091.967.967,0,0,0,.139-.045l5.783-2.406a4.757,4.757,0,0,1,1.279-.091l11.932,2.058a.71.71,0,0,0,.081.01c.244.018.552.4.622.992a.859.859,0,0,0,.726.751l5.839.846c.458.066.882.658,1.008,1.408l2.3,13.692Z" transform="translate(-140.077 -944.441)" fill="#0e1b1b"/>
            </g>
            </g>
        </g>
        </g>
    </g>
</svg>