<svg xmlns="http://www.w3.org/2000/svg" width="48.131" height="48.132" viewBox="0 0 48.131 48.132">
  <path id="icon-time" d="M2003.694,699.76a24.066,24.066,0,1,0,24.066,24.066A24.093,24.093,0,0,0,2003.694,699.76Zm10.042,33.522a2.637,2.637,0,0,1-3.724.2l-8.152-7.312c-.829-.74-.8-3.291-.8-3.516v-11.49a2.634,2.634,0,1,1,5.268,0v11.493a2.634,2.634,0,0,1-.039.411l7.243,6.494A2.637,2.637,0,0,1,2013.736,733.282Z" transform="translate(-1979.628 -699.76)" fill="#7f7f4e" style="mix-blend-mode: normal;isolation: isolate"/>
</svg>
